<svg width="435" height="54" viewBox="0 0 435 54" fill="none" xmlns="http://www.w3.org/2000/svg">
<path d="M109.816 51.1364C109.225 51.1364 108.706 50.9957 108.26 50.7145C107.817 50.4332 107.471 50.0398 107.221 49.5341C106.974 49.0284 106.85 48.4375 106.85 47.7614C106.85 47.0795 106.974 46.4844 107.221 45.9759C107.471 45.4673 107.817 45.0724 108.26 44.7912C108.706 44.5099 109.225 44.3693 109.816 44.3693C110.407 44.3693 110.924 44.5099 111.367 44.7912C111.813 45.0724 112.16 45.4673 112.407 45.9759C112.657 46.4844 112.782 47.0795 112.782 47.7614C112.782 48.4375 112.657 49.0284 112.407 49.5341C112.16 50.0398 111.813 50.4332 111.367 50.7145C110.924 50.9957 110.407 51.1364 109.816 51.1364ZM109.816 50.233C110.265 50.233 110.634 50.1179 110.924 49.8878C111.214 49.6577 111.428 49.3551 111.567 48.9801C111.706 48.6051 111.776 48.1989 111.776 47.7614C111.776 47.3239 111.706 46.9162 111.567 46.5384C111.428 46.1605 111.214 45.8551 110.924 45.6222C110.634 45.3892 110.265 45.2727 109.816 45.2727C109.367 45.2727 108.998 45.3892 108.708 45.6222C108.418 45.8551 108.204 46.1605 108.064 46.5384C107.925 46.9162 107.856 47.3239 107.856 47.7614C107.856 48.1989 107.925 48.6051 108.064 48.9801C108.204 49.3551 108.418 49.6577 108.708 49.8878C108.998 50.1179 109.367 50.233 109.816 50.233ZM118.953 45.9205L118.05 46.1761C117.993 46.0256 117.909 45.8793 117.798 45.7372C117.691 45.5923 117.543 45.473 117.355 45.3793C117.168 45.2855 116.928 45.2386 116.635 45.2386C116.235 45.2386 115.901 45.331 115.634 45.5156C115.369 45.6974 115.237 45.929 115.237 46.2102C115.237 46.4602 115.328 46.6577 115.51 46.8026C115.692 46.9474 115.976 47.0682 116.362 47.1648L117.334 47.4034C117.919 47.5455 118.355 47.7628 118.642 48.0554C118.929 48.3452 119.073 48.7187 119.073 49.1761C119.073 49.5511 118.965 49.8864 118.749 50.1818C118.536 50.4773 118.237 50.7102 117.854 50.8807C117.47 51.0511 117.024 51.1364 116.516 51.1364C115.848 51.1364 115.296 50.9915 114.858 50.7017C114.421 50.4119 114.144 49.9886 114.027 49.4318L114.982 49.1932C115.073 49.5455 115.244 49.8097 115.497 49.9858C115.753 50.1619 116.087 50.25 116.499 50.25C116.968 50.25 117.34 50.1506 117.615 49.9517C117.894 49.75 118.033 49.5085 118.033 49.2273C118.033 49 117.953 48.8097 117.794 48.6562C117.635 48.5 117.391 48.3835 117.061 48.3068L115.97 48.0511C115.371 47.9091 114.931 47.6889 114.649 47.3906C114.371 47.0895 114.232 46.7131 114.232 46.2614C114.232 45.892 114.335 45.5653 114.543 45.2812C114.753 44.9972 115.039 44.7741 115.399 44.6122C115.763 44.4503 116.175 44.3693 116.635 44.3693C117.283 44.3693 117.791 44.5114 118.161 44.7955C118.533 45.0795 118.797 45.4545 118.953 45.9205ZM123.433 44.4545V45.3068H120.041V44.4545H123.433ZM121.03 42.8864H122.035V49.125C122.035 49.4091 122.077 49.6222 122.159 49.7642C122.244 49.9034 122.352 49.9972 122.483 50.0455C122.616 50.0909 122.757 50.1136 122.905 50.1136C123.015 50.1136 123.106 50.108 123.177 50.0966C123.248 50.0824 123.305 50.071 123.348 50.0625L123.552 50.9659C123.484 50.9915 123.389 51.017 123.267 51.0426C123.145 51.071 122.99 51.0852 122.802 51.0852C122.518 51.0852 122.24 51.0241 121.967 50.902C121.697 50.7798 121.473 50.5938 121.294 50.3438C121.118 50.0938 121.03 49.7784 121.03 49.3977V42.8864ZM126.872 51.1534C126.457 51.1534 126.081 51.0753 125.743 50.919C125.405 50.7599 125.136 50.5312 124.937 50.233C124.738 49.9318 124.639 49.5682 124.639 49.142C124.639 48.767 124.713 48.4631 124.861 48.2301C125.008 47.9943 125.206 47.8097 125.453 47.6761C125.7 47.5426 125.973 47.4432 126.271 47.3778C126.572 47.3097 126.875 47.2557 127.179 47.2159C127.577 47.1648 127.899 47.1264 128.146 47.1009C128.396 47.0724 128.578 47.0256 128.692 46.9602C128.808 46.8949 128.866 46.7812 128.866 46.6193V46.5852C128.866 46.1648 128.751 45.8381 128.521 45.6051C128.294 45.3722 127.949 45.2557 127.486 45.2557C127.006 45.2557 126.629 45.3608 126.356 45.571C126.084 45.7812 125.892 46.0057 125.781 46.2443L124.827 45.9034C124.997 45.5057 125.224 45.196 125.508 44.9744C125.795 44.75 126.108 44.5937 126.446 44.5057C126.787 44.4148 127.122 44.3693 127.452 44.3693C127.662 44.3693 127.903 44.3949 128.176 44.446C128.452 44.4943 128.717 44.5952 128.973 44.7486C129.231 44.902 129.446 45.1335 129.616 45.4432C129.787 45.7528 129.872 46.1676 129.872 46.6875V51H128.866V50.1136H128.815C128.747 50.2557 128.633 50.4077 128.474 50.5696C128.315 50.7315 128.104 50.8693 127.839 50.983C127.575 51.0966 127.253 51.1534 126.872 51.1534ZM127.025 50.25C127.423 50.25 127.758 50.1719 128.031 50.0156C128.307 49.8594 128.514 49.6577 128.653 49.4105C128.795 49.1634 128.866 48.9034 128.866 48.6307V47.7102C128.824 47.7614 128.73 47.8082 128.585 47.8509C128.443 47.8906 128.278 47.9261 128.091 47.9574C127.906 47.9858 127.726 48.0114 127.55 48.0341C127.376 48.054 127.236 48.071 127.128 48.0852C126.866 48.1193 126.622 48.1747 126.395 48.2514C126.17 48.3253 125.988 48.4375 125.849 48.5881C125.713 48.7358 125.645 48.9375 125.645 49.1932C125.645 49.5426 125.774 49.8068 126.032 49.9858C126.294 50.1619 126.625 50.25 127.025 50.25ZM132.713 42.2727V51H131.708V42.2727H132.713ZM135.561 42.2727V51H134.555V42.2727H135.561ZM138.051 53.4545C137.88 53.4545 137.728 53.4403 137.595 53.4119C137.461 53.3864 137.369 53.3608 137.318 53.3352L137.573 52.4489C137.818 52.5114 138.034 52.5341 138.221 52.517C138.409 52.5 138.575 52.4162 138.72 52.2656C138.867 52.1179 139.002 51.8778 139.124 51.5455L139.312 51.0341L136.892 44.4545H137.982L139.789 49.6705H139.857L141.664 44.4545H142.755L139.977 51.9545C139.852 52.2926 139.697 52.5724 139.512 52.794C139.328 53.0185 139.113 53.1847 138.869 53.2926C138.627 53.4006 138.355 53.4545 138.051 53.4545ZM146.912 51.1193C146.27 51.1193 145.723 50.9446 145.271 50.5952C144.82 50.2429 144.475 49.733 144.236 49.0653C143.997 48.3949 143.878 47.5852 143.878 46.6364C143.878 45.6932 143.997 44.8878 144.236 44.2202C144.477 43.5497 144.824 43.0384 145.276 42.6861C145.73 42.331 146.276 42.1534 146.912 42.1534C147.548 42.1534 148.093 42.331 148.544 42.6861C148.999 43.0384 149.345 43.5497 149.584 44.2202C149.825 44.8878 149.946 45.6932 149.946 46.6364C149.946 47.5852 149.827 48.3949 149.588 49.0653C149.35 49.733 149.004 50.2429 148.553 50.5952C148.101 50.9446 147.554 51.1193 146.912 51.1193ZM146.912 50.1818C147.548 50.1818 148.043 49.875 148.395 49.2614C148.747 48.6477 148.923 47.7727 148.923 46.6364C148.923 45.8807 148.843 45.2372 148.681 44.706C148.521 44.1747 148.291 43.7699 147.99 43.4915C147.692 43.2131 147.333 43.0739 146.912 43.0739C146.281 43.0739 145.789 43.3849 145.433 44.0071C145.078 44.6264 144.901 45.5028 144.901 46.6364C144.901 47.392 144.98 48.0341 145.139 48.5625C145.298 49.0909 145.527 49.4929 145.825 49.7685C146.127 50.044 146.489 50.1818 146.912 50.1818ZM154.412 51.1193C153.77 51.1193 153.223 50.9446 152.771 50.5952C152.32 50.2429 151.975 49.733 151.736 49.0653C151.497 48.3949 151.378 47.5852 151.378 46.6364C151.378 45.6932 151.497 44.8878 151.736 44.2202C151.977 43.5497 152.324 43.0384 152.776 42.6861C153.23 42.331 153.776 42.1534 154.412 42.1534C155.048 42.1534 155.593 42.331 156.044 42.6861C156.499 43.0384 156.845 43.5497 157.084 44.2202C157.325 44.8878 157.446 45.6932 157.446 46.6364C157.446 47.5852 157.327 48.3949 157.088 49.0653C156.85 49.733 156.504 50.2429 156.053 50.5952C155.601 50.9446 155.054 51.1193 154.412 51.1193ZM154.412 50.1818C155.048 50.1818 155.543 49.875 155.895 49.2614C156.247 48.6477 156.423 47.7727 156.423 46.6364C156.423 45.8807 156.343 45.2372 156.181 44.706C156.021 44.1747 155.791 43.7699 155.49 43.4915C155.192 43.2131 154.833 43.0739 154.412 43.0739C153.781 43.0739 153.289 43.3849 152.933 44.0071C152.578 44.6264 152.401 45.5028 152.401 46.6364C152.401 47.392 152.48 48.0341 152.639 48.5625C152.798 49.0909 153.027 49.4929 153.325 49.7685C153.627 50.044 153.989 50.1818 154.412 50.1818ZM162.134 42.2727V51H161.077V43.3807H161.026L158.895 44.7955V43.7216L161.077 42.2727H162.134ZM169.689 53.3011C168.82 53.3011 168.051 53.1818 167.384 52.9432C166.716 52.7074 166.155 52.3594 165.7 51.8991C165.246 51.4389 164.902 50.875 164.669 50.2074C164.436 49.5398 164.32 48.7756 164.32 47.9148C164.32 47.0824 164.438 46.3381 164.673 45.6818C164.912 45.0256 165.257 44.4688 165.709 44.0114C166.164 43.5511 166.715 43.2003 167.362 42.9588C168.013 42.7173 168.749 42.5966 169.57 42.5966C170.368 42.5966 171.067 42.7273 171.666 42.9886C172.269 43.2472 172.771 43.598 173.175 44.0412C173.581 44.4815 173.885 44.9773 174.087 45.5284C174.291 46.0795 174.394 46.6477 174.394 47.233C174.394 47.6449 174.374 48.0625 174.334 48.4858C174.294 48.9091 174.21 49.2983 174.083 49.6534C173.955 50.0057 173.757 50.2898 173.49 50.5057C173.226 50.7216 172.868 50.8295 172.416 50.8295C172.218 50.8295 171.999 50.7983 171.76 50.7358C171.521 50.6733 171.31 50.5696 171.125 50.4247C170.941 50.2798 170.831 50.0852 170.797 49.8409H170.746C170.678 50.0057 170.573 50.1619 170.431 50.3097C170.291 50.4574 170.108 50.5753 169.881 50.6634C169.656 50.7514 169.382 50.7898 169.058 50.7784C168.689 50.7642 168.364 50.6818 168.083 50.5312C167.801 50.3778 167.566 50.1705 167.375 49.9091C167.188 49.6449 167.046 49.3395 166.949 48.9929C166.855 48.6435 166.808 48.267 166.808 47.8636C166.808 47.4801 166.865 47.1293 166.979 46.8111C167.093 46.4929 167.25 46.2145 167.452 45.9759C167.656 45.7372 167.895 45.5469 168.168 45.4048C168.443 45.2599 168.74 45.1705 169.058 45.1364C169.343 45.108 169.601 45.1207 169.834 45.1747C170.067 45.2259 170.259 45.304 170.409 45.4091C170.56 45.5114 170.655 45.625 170.695 45.75H170.746V45.2727H171.649V49.125C171.649 49.3636 171.716 49.5739 171.85 49.7557C171.983 49.9375 172.178 50.0284 172.433 50.0284C172.723 50.0284 172.945 49.929 173.098 49.7301C173.254 49.5312 173.361 49.2244 173.418 48.8097C173.477 48.3949 173.507 47.8636 173.507 47.2159C173.507 46.8352 173.455 46.4602 173.35 46.0909C173.247 45.7187 173.091 45.3707 172.881 45.0469C172.673 44.723 172.411 44.4375 172.093 44.1903C171.774 43.9432 171.401 43.75 170.972 43.6108C170.546 43.4687 170.061 43.3977 169.519 43.3977C168.851 43.3977 168.253 43.5014 167.725 43.7088C167.199 43.9134 166.752 44.2131 166.382 44.608C166.016 45 165.736 45.4773 165.543 46.0398C165.352 46.5994 165.257 47.2358 165.257 47.9489C165.257 48.6733 165.352 49.3168 165.543 49.8793C165.736 50.4418 166.02 50.9162 166.395 51.3026C166.773 51.6889 167.24 51.9815 167.797 52.1804C168.354 52.3821 168.996 52.483 169.723 52.483C170.036 52.483 170.344 52.4531 170.648 52.3935C170.952 52.3338 171.22 52.2685 171.453 52.1974C171.686 52.1264 171.854 52.0739 171.956 52.0398L172.195 52.8239C172.019 52.8977 171.789 52.9716 171.504 53.0455C171.223 53.1193 170.922 53.1804 170.601 53.2287C170.283 53.277 169.979 53.3011 169.689 53.3011ZM169.195 49.9091C169.575 49.9091 169.884 49.8324 170.119 49.679C170.355 49.5256 170.527 49.294 170.635 48.9844C170.743 48.6747 170.797 48.2841 170.797 47.8125C170.797 47.3352 170.737 46.9631 170.618 46.696C170.499 46.429 170.323 46.2415 170.09 46.1335C169.857 46.0256 169.57 45.9716 169.229 45.9716C168.905 45.9716 168.628 46.0568 168.398 46.2273C168.171 46.3949 167.996 46.6193 167.874 46.9006C167.754 47.179 167.695 47.483 167.695 47.8125C167.695 48.1761 167.743 48.5185 167.84 48.8395C167.936 49.1577 168.094 49.4162 168.313 49.6151C168.531 49.8111 168.825 49.9091 169.195 49.9091ZM178.541 53.5909C178.055 53.5909 177.638 53.5284 177.288 53.4034C176.939 53.2812 176.648 53.1193 176.415 52.9176C176.184 52.7188 176.001 52.5057 175.865 52.2784L176.666 51.7159C176.757 51.8352 176.872 51.9716 177.011 52.125C177.15 52.2812 177.341 52.4162 177.582 52.5298C177.827 52.6463 178.146 52.7045 178.541 52.7045C179.069 52.7045 179.506 52.5767 179.849 52.321C180.193 52.0653 180.365 51.6648 180.365 51.1193V49.7898H180.28C180.206 49.9091 180.101 50.0568 179.964 50.233C179.831 50.4062 179.638 50.5611 179.385 50.6974C179.135 50.831 178.797 50.8977 178.371 50.8977C177.842 50.8977 177.368 50.7727 176.947 50.5227C176.53 50.2727 176.199 49.9091 175.954 49.4318C175.713 48.9545 175.592 48.375 175.592 47.6932C175.592 47.0227 175.71 46.4389 175.946 45.9418C176.182 45.4418 176.51 45.0554 176.93 44.7827C177.351 44.5071 177.836 44.3693 178.388 44.3693C178.814 44.3693 179.152 44.4403 179.402 44.5824C179.655 44.7216 179.848 44.8807 179.981 45.0597C180.118 45.2358 180.223 45.3807 180.297 45.4943H180.399V44.4545H181.371V51.1875C181.371 51.75 181.243 52.2074 180.987 52.5597C180.734 52.9148 180.393 53.1747 179.964 53.3395C179.538 53.5071 179.064 53.5909 178.541 53.5909ZM178.507 49.9943C178.91 49.9943 179.251 49.902 179.53 49.7173C179.808 49.5327 180.02 49.267 180.165 48.9205C180.309 48.5739 180.382 48.1591 180.382 47.6761C180.382 47.2045 180.311 46.7884 180.169 46.4276C180.027 46.0668 179.817 45.7841 179.538 45.5795C179.26 45.375 178.916 45.2727 178.507 45.2727C178.081 45.2727 177.726 45.3807 177.442 45.5966C177.16 45.8125 176.949 46.1023 176.807 46.4659C176.667 46.8295 176.598 47.233 176.598 47.6761C176.598 48.1307 176.669 48.5327 176.811 48.8821C176.956 49.2287 177.169 49.5014 177.45 49.7003C177.734 49.8963 178.086 49.9943 178.507 49.9943ZM183.211 51V44.4545H184.183V45.4773H184.268C184.405 45.1278 184.625 44.8565 184.929 44.6634C185.233 44.4673 185.598 44.3693 186.024 44.3693C186.456 44.3693 186.815 44.4673 187.102 44.6634C187.392 44.8565 187.618 45.1278 187.78 45.4773H187.848C188.015 45.1392 188.267 44.8707 188.602 44.6719C188.937 44.4702 189.339 44.3693 189.808 44.3693C190.393 44.3693 190.872 44.5526 191.244 44.919C191.616 45.2827 191.802 45.8494 191.802 46.6193V51H190.797V46.6193C190.797 46.1364 190.665 45.7912 190.4 45.5838C190.136 45.3764 189.825 45.2727 189.467 45.2727C189.007 45.2727 188.65 45.4119 188.398 45.6903C188.145 45.9659 188.018 46.3153 188.018 46.7386V51H186.996V46.517C186.996 46.1449 186.875 45.8452 186.633 45.6179C186.392 45.3878 186.081 45.2727 185.7 45.2727C185.439 45.2727 185.194 45.3423 184.967 45.4815C184.743 45.6207 184.561 45.8139 184.422 46.0611C184.285 46.3054 184.217 46.5881 184.217 46.9091V51H183.211ZM195.567 51.1534C195.153 51.1534 194.776 51.0753 194.438 50.919C194.1 50.7599 193.831 50.5312 193.633 50.233C193.434 49.9318 193.334 49.5682 193.334 49.142C193.334 48.767 193.408 48.4631 193.556 48.2301C193.704 47.9943 193.901 47.8097 194.148 47.6761C194.395 47.5426 194.668 47.4432 194.966 47.3778C195.268 47.3097 195.57 47.2557 195.874 47.2159C196.272 47.1648 196.594 47.1264 196.841 47.1009C197.091 47.0724 197.273 47.0256 197.387 46.9602C197.503 46.8949 197.562 46.7812 197.562 46.6193V46.5852C197.562 46.1648 197.447 45.8381 197.216 45.6051C196.989 45.3722 196.644 45.2557 196.181 45.2557C195.701 45.2557 195.324 45.3608 195.052 45.571C194.779 45.7812 194.587 46.0057 194.476 46.2443L193.522 45.9034C193.692 45.5057 193.92 45.196 194.204 44.9744C194.491 44.75 194.803 44.5937 195.141 44.5057C195.482 44.4148 195.817 44.3693 196.147 44.3693C196.357 44.3693 196.599 44.3949 196.871 44.446C197.147 44.4943 197.412 44.5952 197.668 44.7486C197.927 44.902 198.141 45.1335 198.312 45.4432C198.482 45.7528 198.567 46.1676 198.567 46.6875V51H197.562V50.1136H197.51C197.442 50.2557 197.329 50.4077 197.17 50.5696C197.01 50.7315 196.799 50.8693 196.535 50.983C196.27 51.0966 195.948 51.1534 195.567 51.1534ZM195.721 50.25C196.118 50.25 196.454 50.1719 196.726 50.0156C197.002 49.8594 197.209 49.6577 197.349 49.4105C197.491 49.1634 197.562 48.9034 197.562 48.6307V47.7102C197.519 47.7614 197.425 47.8082 197.28 47.8509C197.138 47.8906 196.974 47.9261 196.786 47.9574C196.601 47.9858 196.421 48.0114 196.245 48.0341C196.072 48.054 195.931 48.071 195.823 48.0852C195.562 48.1193 195.317 48.1747 195.09 48.2514C194.866 48.3253 194.684 48.4375 194.545 48.5881C194.408 48.7358 194.34 48.9375 194.34 49.1932C194.34 49.5426 194.469 49.8068 194.728 49.9858C194.989 50.1619 195.32 50.25 195.721 50.25ZM200.403 51V44.4545H201.409V51H200.403ZM200.914 43.3636C200.718 43.3636 200.549 43.2969 200.407 43.1634C200.268 43.0298 200.198 42.8693 200.198 42.6818C200.198 42.4943 200.268 42.3338 200.407 42.2003C200.549 42.0668 200.718 42 200.914 42C201.11 42 201.278 42.0668 201.417 42.2003C201.559 42.3338 201.63 42.4943 201.63 42.6818C201.63 42.8693 201.559 43.0298 201.417 43.1634C201.278 43.2969 201.11 43.3636 200.914 43.3636ZM204.256 42.2727V51H203.251V42.2727H204.256ZM206.831 51.0682C206.621 51.0682 206.441 50.9929 206.29 50.8423C206.139 50.6918 206.064 50.5114 206.064 50.3011C206.064 50.0909 206.139 49.9105 206.29 49.7599C206.441 49.6094 206.621 49.5341 206.831 49.5341C207.041 49.5341 207.222 49.6094 207.372 49.7599C207.523 49.9105 207.598 50.0909 207.598 50.3011C207.598 50.4403 207.563 50.5682 207.492 50.6847C207.423 50.8011 207.331 50.8949 207.215 50.9659C207.101 51.0341 206.973 51.0682 206.831 51.0682ZM212.062 51.1364C211.448 51.1364 210.92 50.9915 210.477 50.7017C210.034 50.4119 209.693 50.0128 209.454 49.5043C209.215 48.9957 209.096 48.4148 209.096 47.7614C209.096 47.0966 209.218 46.5099 209.463 46.0014C209.71 45.4901 210.053 45.0909 210.494 44.804C210.937 44.5142 211.454 44.3693 212.045 44.3693C212.505 44.3693 212.92 44.4545 213.289 44.625C213.659 44.7955 213.961 45.0341 214.197 45.3409C214.433 45.6477 214.579 46.0057 214.636 46.4148H213.63C213.553 46.1165 213.383 45.8523 213.119 45.6222C212.857 45.3892 212.505 45.2727 212.062 45.2727C211.67 45.2727 211.326 45.375 211.031 45.5795C210.738 45.7812 210.509 46.0668 210.345 46.4361C210.183 46.8026 210.102 47.233 210.102 47.7273C210.102 48.233 210.181 48.6733 210.34 49.0483C210.502 49.4233 210.73 49.7145 211.022 49.9219C211.318 50.1293 211.664 50.233 212.062 50.233C212.323 50.233 212.561 50.1875 212.774 50.0966C212.987 50.0057 213.167 49.875 213.315 49.7045C213.463 49.5341 213.568 49.3295 213.63 49.0909H214.636C214.579 49.4773 214.438 49.8253 214.214 50.1349C213.992 50.4418 213.698 50.6861 213.332 50.8679C212.968 51.0469 212.545 51.1364 212.062 51.1364ZM218.765 51.1364C218.174 51.1364 217.656 50.9957 217.21 50.7145C216.767 50.4332 216.42 50.0398 216.17 49.5341C215.923 49.0284 215.799 48.4375 215.799 47.7614C215.799 47.0795 215.923 46.4844 216.17 45.9759C216.42 45.4673 216.767 45.0724 217.21 44.7912C217.656 44.5099 218.174 44.3693 218.765 44.3693C219.356 44.3693 219.873 44.5099 220.316 44.7912C220.762 45.0724 221.109 45.4673 221.356 45.9759C221.606 46.4844 221.731 47.0795 221.731 47.7614C221.731 48.4375 221.606 49.0284 221.356 49.5341C221.109 50.0398 220.762 50.4332 220.316 50.7145C219.873 50.9957 219.356 51.1364 218.765 51.1364ZM218.765 50.233C219.214 50.233 219.583 50.1179 219.873 49.8878C220.163 49.6577 220.377 49.3551 220.517 48.9801C220.656 48.6051 220.725 48.1989 220.725 47.7614C220.725 47.3239 220.656 46.9162 220.517 46.5384C220.377 46.1605 220.163 45.8551 219.873 45.6222C219.583 45.3892 219.214 45.2727 218.765 45.2727C218.316 45.2727 217.947 45.3892 217.657 45.6222C217.367 45.8551 217.153 46.1605 217.014 46.5384C216.874 46.9162 216.805 47.3239 216.805 47.7614C216.805 48.1989 216.874 48.6051 217.014 48.9801C217.153 49.3551 217.367 49.6577 217.657 49.8878C217.947 50.1179 218.316 50.233 218.765 50.233ZM223.266 51V44.4545H224.238V45.4773H224.323C224.459 45.1278 224.68 44.8565 224.983 44.6634C225.287 44.4673 225.653 44.3693 226.079 44.3693C226.51 44.3693 226.87 44.4673 227.157 44.6634C227.447 44.8565 227.672 45.1278 227.834 45.4773H227.903C228.07 45.1392 228.322 44.8707 228.657 44.6719C228.992 44.4702 229.394 44.3693 229.863 44.3693C230.448 44.3693 230.927 44.5526 231.299 44.919C231.671 45.2827 231.857 45.8494 231.857 46.6193V51H230.851V46.6193C230.851 46.1364 230.719 45.7912 230.455 45.5838C230.191 45.3764 229.88 45.2727 229.522 45.2727C229.062 45.2727 228.705 45.4119 228.452 45.6903C228.199 45.9659 228.073 46.3153 228.073 46.7386V51H227.05V46.517C227.05 46.1449 226.93 45.8452 226.688 45.6179C226.447 45.3878 226.135 45.2727 225.755 45.2727C225.493 45.2727 225.249 45.3423 225.022 45.4815C224.797 45.6207 224.616 45.8139 224.476 46.0611C224.34 46.3054 224.272 46.5881 224.272 46.9091V51H223.266ZM238.537 39.4602V53.8125H237.684V39.4602H238.537ZM244.73 46.6364C244.73 45.5625 244.869 44.5753 245.147 43.6747C245.428 42.7713 245.829 41.9403 246.349 41.1818H247.235C247.031 41.4631 246.839 41.8097 246.66 42.2216C246.484 42.6307 246.329 43.081 246.195 43.5724C246.062 44.0611 245.957 44.5668 245.88 45.0895C245.806 45.6122 245.769 46.1278 245.769 46.6364C245.769 47.3125 245.835 47.9986 245.965 48.6946C246.096 49.3906 246.272 50.0369 246.494 50.6335C246.715 51.2301 246.963 51.7159 247.235 52.0909H246.349C245.829 51.3324 245.428 50.5028 245.147 49.6023C244.869 48.6989 244.73 47.7102 244.73 46.6364ZM248.975 51L252.878 43.2784V43.2102H248.378V42.2727H253.969V43.2614L250.083 51H248.975ZM258.217 51.1193C257.575 51.1193 257.028 50.9446 256.576 50.5952C256.124 50.2429 255.779 49.733 255.541 49.0653C255.302 48.3949 255.183 47.5852 255.183 46.6364C255.183 45.6932 255.302 44.8878 255.541 44.2202C255.782 43.5497 256.129 43.0384 256.58 42.6861C257.035 42.331 257.58 42.1534 258.217 42.1534C258.853 42.1534 259.397 42.331 259.849 42.6861C260.303 43.0384 260.65 43.5497 260.889 44.2202C261.13 44.8878 261.251 45.6932 261.251 46.6364C261.251 47.5852 261.132 48.3949 260.893 49.0653C260.654 49.733 260.309 50.2429 259.857 50.5952C259.406 50.9446 258.859 51.1193 258.217 51.1193ZM258.217 50.1818C258.853 50.1818 259.347 49.875 259.7 49.2614C260.052 48.6477 260.228 47.7727 260.228 46.6364C260.228 45.8807 260.147 45.2372 259.985 44.706C259.826 44.1747 259.596 43.7699 259.295 43.4915C258.997 43.2131 258.637 43.0739 258.217 43.0739C257.586 43.0739 257.093 43.3849 256.738 44.0071C256.383 44.6264 256.205 45.5028 256.205 46.6364C256.205 47.392 256.285 48.0341 256.444 48.5625C256.603 49.0909 256.832 49.4929 257.13 49.7685C257.431 50.044 257.794 50.1818 258.217 50.1818ZM265.666 51.1193C265.08 51.1193 264.563 51.0156 264.115 50.8082C263.669 50.598 263.32 50.3097 263.07 49.9432C262.82 49.5739 262.697 49.1534 262.7 48.6818C262.697 48.3125 262.769 47.9716 262.917 47.6591C263.065 47.3437 263.267 47.081 263.522 46.8707C263.781 46.6577 264.069 46.5227 264.387 46.4659V46.4148C263.97 46.3068 263.637 46.0724 263.39 45.7116C263.143 45.348 263.021 44.9347 263.024 44.4716C263.021 44.0284 263.133 43.6321 263.36 43.2827C263.588 42.9332 263.9 42.6577 264.298 42.456C264.698 42.2543 265.154 42.1534 265.666 42.1534C266.171 42.1534 266.623 42.2543 267.021 42.456C267.419 42.6577 267.731 42.9332 267.958 43.2827C268.188 43.6321 268.305 44.0284 268.308 44.4716C268.305 44.9347 268.178 45.348 267.928 45.7116C267.681 46.0724 267.353 46.3068 266.944 46.4148V46.4659C267.259 46.5227 267.544 46.6577 267.796 46.8707C268.049 47.081 268.251 47.3437 268.401 47.6591C268.552 47.9716 268.629 48.3125 268.632 48.6818C268.629 49.1534 268.501 49.5739 268.248 49.9432C267.998 50.3097 267.65 50.598 267.204 50.8082C266.761 51.0156 266.248 51.1193 265.666 51.1193ZM265.666 50.1818C266.061 50.1818 266.401 50.1179 266.688 49.9901C266.975 49.8622 267.197 49.6818 267.353 49.4489C267.509 49.2159 267.589 48.9432 267.592 48.6307C267.589 48.3011 267.504 48.0099 267.336 47.7571C267.169 47.5043 266.94 47.3054 266.65 47.1605C266.363 47.0156 266.035 46.9432 265.666 46.9432C265.294 46.9432 264.961 47.0156 264.669 47.1605C264.379 47.3054 264.15 47.5043 263.982 47.7571C263.818 48.0099 263.737 48.3011 263.74 48.6307C263.737 48.9432 263.812 49.2159 263.965 49.4489C264.122 49.6818 264.345 49.8622 264.634 49.9901C264.924 50.1179 265.268 50.1818 265.666 50.1818ZM265.666 46.0398C265.978 46.0398 266.255 45.9773 266.497 45.8523C266.741 45.7273 266.933 45.5526 267.072 45.3281C267.211 45.1037 267.282 44.8409 267.285 44.5398C267.282 44.2443 267.213 43.9872 267.076 43.7685C266.94 43.5469 266.751 43.3764 266.509 43.2571C266.268 43.1349 265.987 43.0739 265.666 43.0739C265.339 43.0739 265.053 43.1349 264.809 43.2571C264.565 43.3764 264.376 43.5469 264.242 43.7685C264.109 43.9872 264.044 44.2443 264.046 44.5398C264.044 44.8409 264.11 45.1037 264.247 45.3281C264.386 45.5526 264.578 45.7273 264.822 45.8523C265.066 45.9773 265.347 46.0398 265.666 46.0398ZM272.43 46.6364C272.43 47.7102 272.289 48.6989 272.008 49.6023C271.729 50.5028 271.33 51.3324 270.81 52.0909H269.924C270.128 51.8097 270.319 51.4631 270.495 51.0511C270.674 50.642 270.83 50.1932 270.964 49.7045C271.097 49.2131 271.201 48.706 271.275 48.1832C271.351 47.6577 271.39 47.142 271.39 46.6364C271.39 45.9602 271.324 45.2741 271.194 44.5781C271.063 43.8821 270.887 43.2358 270.665 42.6392C270.444 42.0426 270.197 41.5568 269.924 41.1818H270.81C271.33 41.9403 271.729 42.7713 272.008 43.6747C272.289 44.5753 272.43 45.5625 272.43 46.6364ZM277.34 51.1193C276.84 51.1193 276.389 51.0199 275.989 50.821C275.588 50.6222 275.267 50.3494 275.026 50.0028C274.784 49.6562 274.652 49.2614 274.629 48.8182H275.652C275.692 49.2131 275.871 49.5398 276.189 49.7983C276.51 50.054 276.894 50.1818 277.34 50.1818C277.698 50.1818 278.016 50.098 278.294 49.9304C278.575 49.7628 278.796 49.5327 278.955 49.2401C279.117 48.9446 279.198 48.6108 279.198 48.2386C279.198 47.858 279.114 47.5185 278.946 47.2202C278.781 46.919 278.554 46.6818 278.264 46.5085C277.975 46.3352 277.644 46.2472 277.271 46.2443C277.004 46.2415 276.73 46.2827 276.449 46.3679C276.168 46.4503 275.936 46.5568 275.754 46.6875L274.766 46.5682L275.294 42.2727H279.828V43.2102H276.181L275.874 45.7841H275.925C276.104 45.642 276.328 45.5241 276.598 45.4304C276.868 45.3366 277.149 45.2898 277.442 45.2898C277.976 45.2898 278.452 45.4176 278.869 45.6733C279.29 45.9261 279.619 46.2727 279.858 46.7131C280.1 47.1534 280.22 47.6562 280.22 48.2216C280.22 48.7784 280.095 49.2756 279.845 49.7131C279.598 50.1477 279.257 50.4915 278.823 50.7443C278.388 50.9943 277.894 51.1193 277.34 51.1193ZM284.981 42.2727V51H283.925V43.3807H283.873L281.743 44.7955V43.7216L283.925 42.2727H284.981ZM290.287 51.1193C289.702 51.1193 289.184 51.0156 288.736 50.8082C288.29 50.598 287.942 50.3097 287.692 49.9432C287.442 49.5739 287.318 49.1534 287.321 48.6818C287.318 48.3125 287.39 47.9716 287.538 47.6591C287.686 47.3437 287.888 47.081 288.143 46.8707C288.402 46.6577 288.69 46.5227 289.008 46.4659V46.4148C288.591 46.3068 288.258 46.0724 288.011 45.7116C287.764 45.348 287.642 44.9347 287.645 44.4716C287.642 44.0284 287.754 43.6321 287.981 43.2827C288.209 42.9332 288.521 42.6577 288.919 42.456C289.319 42.2543 289.775 42.1534 290.287 42.1534C290.792 42.1534 291.244 42.2543 291.642 42.456C292.04 42.6577 292.352 42.9332 292.579 43.2827C292.809 43.6321 292.926 44.0284 292.929 44.4716C292.926 44.9347 292.8 45.348 292.55 45.7116C292.302 46.0724 291.974 46.3068 291.565 46.4148V46.4659C291.881 46.5227 292.165 46.6577 292.417 46.8707C292.67 47.081 292.872 47.3437 293.023 47.6591C293.173 47.9716 293.25 48.3125 293.253 48.6818C293.25 49.1534 293.122 49.5739 292.869 49.9432C292.619 50.3097 292.271 50.598 291.825 50.8082C291.382 51.0156 290.869 51.1193 290.287 51.1193ZM290.287 50.1818C290.682 50.1818 291.023 50.1179 291.309 49.9901C291.596 49.8622 291.818 49.6818 291.974 49.4489C292.131 49.2159 292.21 48.9432 292.213 48.6307C292.21 48.3011 292.125 48.0099 291.957 47.7571C291.79 47.5043 291.561 47.3054 291.271 47.1605C290.984 47.0156 290.656 46.9432 290.287 46.9432C289.915 46.9432 289.582 47.0156 289.29 47.1605C289 47.3054 288.771 47.5043 288.604 47.7571C288.439 48.0099 288.358 48.3011 288.361 48.6307C288.358 48.9432 288.433 49.2159 288.586 49.4489C288.743 49.6818 288.966 49.8622 289.256 49.9901C289.545 50.1179 289.889 50.1818 290.287 50.1818ZM290.287 46.0398C290.599 46.0398 290.876 45.9773 291.118 45.8523C291.362 45.7273 291.554 45.5526 291.693 45.3281C291.832 45.1037 291.903 44.8409 291.906 44.5398C291.903 44.2443 291.834 43.9872 291.697 43.7685C291.561 43.5469 291.372 43.3764 291.131 43.2571C290.889 43.1349 290.608 43.0739 290.287 43.0739C289.96 43.0739 289.675 43.1349 289.43 43.2571C289.186 43.3764 288.997 43.5469 288.863 43.7685C288.73 43.9872 288.665 44.2443 288.667 44.5398C288.665 44.8409 288.731 45.1037 288.868 45.3281C289.007 45.5526 289.199 45.7273 289.443 45.8523C289.687 45.9773 289.969 46.0398 290.287 46.0398ZM298.653 46.1676V47.1051H294.835V46.1676H298.653ZM300.201 49.2102V48.3409L304.036 42.2727H304.667V43.6193H304.241L301.343 48.2045V48.2727H306.508V49.2102H300.201ZM304.309 51V48.946V48.5412V42.2727H305.314V51H304.309ZM308.105 51V50.233L310.985 47.0795C311.323 46.7102 311.602 46.3892 311.82 46.1165C312.039 45.8409 312.201 45.5824 312.306 45.3409C312.414 45.0966 312.468 44.8409 312.468 44.5739C312.468 44.267 312.394 44.0014 312.247 43.777C312.102 43.5526 311.903 43.3793 311.65 43.2571C311.397 43.1349 311.113 43.0739 310.798 43.0739C310.463 43.0739 310.17 43.1435 309.92 43.2827C309.673 43.419 309.481 43.6108 309.345 43.858C309.211 44.1051 309.144 44.3949 309.144 44.7273H308.139C308.139 44.2159 308.257 43.767 308.492 43.3807C308.728 42.9943 309.049 42.6932 309.455 42.4773C309.865 42.2614 310.323 42.1534 310.832 42.1534C311.343 42.1534 311.796 42.2614 312.191 42.4773C312.586 42.6932 312.896 42.9844 313.12 43.3509C313.345 43.7173 313.457 44.125 313.457 44.5739C313.457 44.8949 313.399 45.2088 313.282 45.5156C313.169 45.8196 312.97 46.1591 312.686 46.5341C312.404 46.9062 312.014 47.3608 311.514 47.8977L309.553 49.9943V50.0625H313.61V51H308.105ZM315.643 51L319.546 43.2784V43.2102H315.046V42.2727H320.637V43.2614L316.751 51H315.643ZM324.975 51.1193C324.413 51.1193 323.911 51.0227 323.471 50.8295C323.034 50.6364 322.686 50.3679 322.427 50.0241C322.171 49.6776 322.032 49.2756 322.009 48.8182H323.083C323.106 49.0994 323.203 49.3423 323.373 49.5469C323.544 49.7486 323.767 49.9048 324.042 50.0156C324.318 50.1264 324.623 50.1818 324.958 50.1818C325.333 50.1818 325.666 50.1165 325.955 49.9858C326.245 49.8551 326.472 49.6733 326.637 49.4403C326.802 49.2074 326.884 48.9375 326.884 48.6307C326.884 48.3097 326.805 48.027 326.646 47.7827C326.487 47.5355 326.254 47.3423 325.947 47.2031C325.64 47.0639 325.265 46.9943 324.822 46.9943H324.123V46.0568H324.822C325.169 46.0568 325.472 45.9943 325.734 45.8693C325.998 45.7443 326.204 45.5682 326.352 45.3409C326.502 45.1136 326.578 44.8466 326.578 44.5398C326.578 44.2443 326.512 43.9872 326.382 43.7685C326.251 43.5497 326.066 43.3793 325.828 43.2571C325.592 43.1349 325.313 43.0739 324.992 43.0739C324.691 43.0739 324.407 43.1293 324.14 43.2401C323.876 43.348 323.66 43.5057 323.492 43.7131C323.325 43.9176 323.234 44.1648 323.22 44.4545H322.197C322.214 43.9972 322.352 43.5966 322.61 43.2528C322.869 42.9062 323.207 42.6364 323.624 42.4432C324.045 42.25 324.507 42.1534 325.009 42.1534C325.549 42.1534 326.012 42.2628 326.399 42.4815C326.785 42.6974 327.082 42.983 327.289 43.3381C327.497 43.6932 327.6 44.0767 327.6 44.4886C327.6 44.9801 327.471 45.3991 327.213 45.7457C326.957 46.0923 326.609 46.3324 326.169 46.4659V46.5341C326.72 46.625 327.15 46.8594 327.46 47.2372C327.769 47.6122 327.924 48.0767 327.924 48.6307C327.924 49.1051 327.795 49.5312 327.536 49.9091C327.281 50.2841 326.931 50.5795 326.488 50.7955C326.045 51.0114 325.541 51.1193 324.975 51.1193Z" fill="white"/>
<path d="M160.346 28.4545C160.346 29.8352 160.096 31.0284 159.598 32.0341C159.099 33.0398 158.415 33.8153 157.546 34.3608C156.676 34.9062 155.684 35.179 154.567 35.179C153.451 35.179 152.458 34.9062 151.588 34.3608C150.719 33.8153 150.035 33.0398 149.537 32.0341C149.038 31.0284 148.789 29.8352 148.789 28.4545C148.789 27.0739 149.038 25.8807 149.537 24.875C150.035 23.8693 150.719 23.0938 151.588 22.5483C152.458 22.0028 153.451 21.7301 154.567 21.7301C155.684 21.7301 156.676 22.0028 157.546 22.5483C158.415 23.0938 159.099 23.8693 159.598 24.875C160.096 25.8807 160.346 27.0739 160.346 28.4545ZM158.811 28.4545C158.811 27.321 158.622 26.3643 158.243 25.5845C157.868 24.8047 157.358 24.2145 156.715 23.8139C156.076 23.4134 155.36 23.2131 154.567 23.2131C153.775 23.2131 153.056 23.4134 152.413 23.8139C151.774 24.2145 151.265 24.8047 150.885 25.5845C150.51 26.3643 150.323 27.321 150.323 28.4545C150.323 29.5881 150.51 30.5447 150.885 31.3246C151.265 32.1044 151.774 32.6946 152.413 33.0952C153.056 33.4957 153.775 33.696 154.567 33.696C155.36 33.696 156.076 33.4957 156.715 33.0952C157.358 32.6946 157.868 32.1044 158.243 31.3246C158.622 30.5447 158.811 29.5881 158.811 28.4545ZM164.315 29.0938V35H162.806V25.1818H164.264V26.7159H164.392C164.622 26.2173 164.971 25.8168 165.44 25.5142C165.909 25.2074 166.514 25.054 167.255 25.054C167.92 25.054 168.502 25.1903 169 25.4631C169.499 25.7315 169.887 26.1406 170.164 26.6903C170.441 27.2358 170.579 27.9261 170.579 28.7614V35H169.071V28.8636C169.071 28.0923 168.87 27.4915 168.47 27.0611C168.069 26.6264 167.52 26.4091 166.821 26.4091C166.339 26.4091 165.909 26.5135 165.529 26.7223C165.154 26.9311 164.858 27.2358 164.641 27.6364C164.424 28.0369 164.315 28.5227 164.315 29.0938ZM177.606 25.1818V26.4602H172.518V25.1818H177.606ZM174.001 22.8295H175.509V32.1875C175.509 32.6136 175.571 32.9332 175.694 33.1463C175.822 33.3551 175.984 33.4957 176.18 33.5682C176.381 33.6364 176.591 33.6705 176.813 33.6705C176.979 33.6705 177.116 33.6619 177.222 33.6449C177.329 33.6236 177.414 33.6065 177.478 33.5938L177.785 34.9489C177.682 34.9872 177.54 35.0256 177.356 35.0639C177.173 35.1065 176.941 35.1278 176.66 35.1278C176.233 35.1278 175.816 35.0362 175.407 34.853C175.002 34.6697 174.665 34.3906 174.397 34.0156C174.133 33.6406 174.001 33.1676 174.001 32.5966V22.8295ZM182.764 35.2301C182.142 35.2301 181.577 35.1129 181.07 34.8786C180.563 34.6399 180.16 34.2969 179.862 33.8494C179.564 33.3977 179.415 32.8523 179.415 32.2131C179.415 31.6506 179.525 31.1946 179.747 30.8452C179.969 30.4915 180.265 30.2145 180.635 30.0142C181.006 29.8139 181.415 29.6648 181.863 29.5668C182.314 29.4645 182.768 29.3835 183.224 29.3239C183.821 29.2472 184.305 29.1896 184.675 29.1513C185.05 29.1087 185.323 29.0384 185.493 28.9403C185.668 28.8423 185.756 28.6719 185.756 28.429V28.3778C185.756 27.7472 185.583 27.2571 185.238 26.9077C184.897 26.5582 184.379 26.3835 183.684 26.3835C182.964 26.3835 182.4 26.5412 181.991 26.8565C181.581 27.1719 181.294 27.5085 181.128 27.8665L179.696 27.3551C179.952 26.7585 180.292 26.294 180.719 25.9616C181.149 25.625 181.618 25.3906 182.125 25.2585C182.636 25.1222 183.139 25.054 183.633 25.054C183.949 25.054 184.311 25.0923 184.72 25.169C185.133 25.2415 185.532 25.3928 185.915 25.6229C186.303 25.853 186.625 26.2003 186.881 26.6648C187.136 27.1293 187.264 27.7514 187.264 28.5312V35H185.756V33.6705H185.679C185.577 33.8835 185.406 34.1115 185.167 34.3544C184.929 34.5973 184.611 34.804 184.215 34.9744C183.819 35.1449 183.335 35.2301 182.764 35.2301ZM182.994 33.875C183.591 33.875 184.094 33.7578 184.503 33.5234C184.916 33.2891 185.227 32.9865 185.436 32.6158C185.649 32.245 185.756 31.8551 185.756 31.446V30.0653C185.692 30.142 185.551 30.2124 185.334 30.2763C185.121 30.3359 184.873 30.3892 184.592 30.4361C184.315 30.4787 184.045 30.517 183.78 30.5511C183.52 30.581 183.309 30.6065 183.148 30.6278C182.756 30.679 182.389 30.7621 182.048 30.8771C181.711 30.9879 181.439 31.1562 181.23 31.3821C181.025 31.6037 180.923 31.9062 180.923 32.2898C180.923 32.8139 181.117 33.2102 181.505 33.4787C181.897 33.7429 182.393 33.875 182.994 33.875ZM190.017 35V25.1818H191.475V26.6648H191.577C191.756 26.179 192.08 25.7848 192.549 25.4822C193.017 25.1797 193.546 25.0284 194.134 25.0284C194.245 25.0284 194.383 25.0305 194.549 25.0348C194.716 25.0391 194.841 25.0455 194.926 25.054V26.5881C194.875 26.5753 194.758 26.5561 194.575 26.5305C194.396 26.5007 194.206 26.4858 194.006 26.4858C193.529 26.4858 193.103 26.5859 192.728 26.7862C192.357 26.9822 192.063 27.255 191.846 27.6044C191.632 27.9496 191.526 28.3437 191.526 28.7869V35H190.017ZM196.715 35V25.1818H198.223V35H196.715ZM197.482 23.5455C197.188 23.5455 196.934 23.4453 196.721 23.245C196.512 23.0447 196.408 22.804 196.408 22.5227C196.408 22.2415 196.512 22.0007 196.721 21.8004C196.934 21.6001 197.188 21.5 197.482 21.5C197.776 21.5 198.027 21.6001 198.236 21.8004C198.449 22.0007 198.556 22.2415 198.556 22.5227C198.556 22.804 198.449 23.0447 198.236 23.245C198.027 23.4453 197.776 23.5455 197.482 23.5455ZM204.975 35.2045C204.088 35.2045 203.311 34.9936 202.642 34.5717C201.977 34.1499 201.457 33.5597 201.082 32.8011C200.711 32.0426 200.526 31.1562 200.526 30.142C200.526 29.1193 200.711 28.2266 201.082 27.4638C201.457 26.701 201.977 26.1087 202.642 25.6868C203.311 25.2649 204.088 25.054 204.975 25.054C205.861 25.054 206.637 25.2649 207.301 25.6868C207.971 26.1087 208.49 26.701 208.861 27.4638C209.236 28.2266 209.424 29.1193 209.424 30.142C209.424 31.1562 209.236 32.0426 208.861 32.8011C208.49 33.5597 207.971 34.1499 207.301 34.5717C206.637 34.9936 205.861 35.2045 204.975 35.2045ZM204.975 33.8494C205.648 33.8494 206.202 33.6768 206.637 33.3317C207.071 32.9865 207.393 32.5327 207.602 31.9702C207.811 31.4077 207.915 30.7983 207.915 30.142C207.915 29.4858 207.811 28.8743 207.602 28.3075C207.393 27.7408 207.071 27.2827 206.637 26.9332C206.202 26.5838 205.648 26.4091 204.975 26.4091C204.301 26.4091 203.748 26.5838 203.313 26.9332C202.878 27.2827 202.556 27.7408 202.348 28.3075C202.139 28.8743 202.034 29.4858 202.034 30.142C202.034 30.7983 202.139 31.4077 202.348 31.9702C202.556 32.5327 202.878 32.9865 203.313 33.3317C203.748 33.6768 204.301 33.8494 204.975 33.8494ZM224.153 25.1818C224.076 24.5341 223.765 24.0312 223.219 23.6733C222.674 23.3153 222.005 23.1364 221.212 23.1364C220.633 23.1364 220.126 23.2301 219.691 23.4176C219.26 23.6051 218.924 23.8629 218.681 24.1911C218.442 24.5192 218.323 24.892 218.323 25.3097C218.323 25.6591 218.406 25.9595 218.572 26.2109C218.743 26.4581 218.96 26.6648 219.224 26.831C219.488 26.9929 219.765 27.1271 220.055 27.2337C220.345 27.3359 220.611 27.419 220.854 27.483L222.184 27.8409C222.525 27.9304 222.904 28.054 223.322 28.2116C223.743 28.3693 224.146 28.5845 224.53 28.8572C224.917 29.1257 225.237 29.4709 225.488 29.8928C225.74 30.3146 225.866 30.8324 225.866 31.446C225.866 32.1534 225.68 32.7926 225.309 33.3636C224.943 33.9347 224.406 34.3885 223.699 34.7251C222.996 35.0618 222.141 35.2301 221.135 35.2301C220.198 35.2301 219.386 35.0788 218.7 34.7763C218.018 34.4737 217.481 34.0518 217.089 33.5107C216.702 32.9695 216.482 32.3409 216.431 31.625H218.067C218.11 32.1193 218.276 32.5284 218.566 32.8523C218.86 33.1719 219.231 33.4105 219.678 33.5682C220.13 33.7216 220.616 33.7983 221.135 33.7983C221.741 33.7983 222.284 33.7003 222.765 33.5043C223.247 33.304 223.628 33.027 223.91 32.6733C224.191 32.3153 224.331 31.8977 224.331 31.4205C224.331 30.9858 224.21 30.6321 223.967 30.3594C223.724 30.0866 223.405 29.8651 223.008 29.6946C222.612 29.5241 222.184 29.375 221.724 29.2472L220.113 28.7869C219.09 28.4929 218.28 28.0732 217.684 27.5277C217.087 26.9822 216.789 26.2685 216.789 25.3864C216.789 24.6534 216.987 24.0142 217.383 23.4688C217.784 22.919 218.321 22.4929 218.994 22.1903C219.672 21.8835 220.428 21.7301 221.263 21.7301C222.107 21.7301 222.857 21.8814 223.513 22.1839C224.17 22.4822 224.689 22.8913 225.073 23.4112C225.461 23.9311 225.665 24.5213 225.687 25.1818H224.153ZM232.537 25.1818V26.4602H227.449V25.1818H232.537ZM228.932 22.8295H230.441V32.1875C230.441 32.6136 230.502 32.9332 230.626 33.1463C230.754 33.3551 230.916 33.4957 231.112 33.5682C231.312 33.6364 231.523 33.6705 231.745 33.6705C231.911 33.6705 232.047 33.6619 232.154 33.6449C232.26 33.6236 232.346 33.6065 232.409 33.5938L232.716 34.9489C232.614 34.9872 232.471 35.0256 232.288 35.0639C232.105 35.1065 231.873 35.1278 231.591 35.1278C231.165 35.1278 230.748 35.0362 230.338 34.853C229.934 34.6697 229.597 34.3906 229.328 34.0156C229.064 33.6406 228.932 33.1676 228.932 32.5966V22.8295ZM237.696 35.2301C237.074 35.2301 236.509 35.1129 236.002 34.8786C235.495 34.6399 235.092 34.2969 234.794 33.8494C234.495 33.3977 234.346 32.8523 234.346 32.2131C234.346 31.6506 234.457 31.1946 234.679 30.8452C234.9 30.4915 235.196 30.2145 235.567 30.0142C235.938 29.8139 236.347 29.6648 236.794 29.5668C237.246 29.4645 237.7 29.3835 238.156 29.3239C238.752 29.2472 239.236 29.1896 239.607 29.1513C239.982 29.1087 240.255 29.0384 240.425 28.9403C240.6 28.8423 240.687 28.6719 240.687 28.429V28.3778C240.687 27.7472 240.515 27.2571 240.169 26.9077C239.828 26.5582 239.311 26.3835 238.616 26.3835C237.896 26.3835 237.331 26.5412 236.922 26.8565C236.513 27.1719 236.225 27.5085 236.059 27.8665L234.627 27.3551C234.883 26.7585 235.224 26.294 235.65 25.9616C236.081 25.625 236.549 25.3906 237.056 25.2585C237.568 25.1222 238.071 25.054 238.565 25.054C238.88 25.054 239.243 25.0923 239.652 25.169C240.065 25.2415 240.463 25.3928 240.847 25.6229C241.235 25.853 241.556 26.2003 241.812 26.6648C242.068 27.1293 242.196 27.7514 242.196 28.5312V35H240.687V33.6705H240.61C240.508 33.8835 240.338 34.1115 240.099 34.3544C239.86 34.5973 239.543 34.804 239.147 34.9744C238.75 35.1449 238.267 35.2301 237.696 35.2301ZM237.926 33.875C238.522 33.875 239.025 33.7578 239.434 33.5234C239.848 33.2891 240.159 32.9865 240.368 32.6158C240.581 32.245 240.687 31.8551 240.687 31.446V30.0653C240.623 30.142 240.483 30.2124 240.265 30.2763C240.052 30.3359 239.805 30.3892 239.524 30.4361C239.247 30.4787 238.976 30.517 238.712 30.5511C238.452 30.581 238.241 30.6065 238.079 30.6278C237.687 30.679 237.321 30.7621 236.98 30.8771C236.643 30.9879 236.37 31.1562 236.162 31.3821C235.957 31.6037 235.855 31.9062 235.855 32.2898C235.855 32.8139 236.049 33.2102 236.436 33.4787C236.828 33.7429 237.325 33.875 237.926 33.875ZM246.458 21.9091V35H244.949V21.9091H246.458ZM250.729 21.9091V35H249.221V21.9091H250.729ZM253.492 35V25.1818H255.001V35H253.492ZM254.259 23.5455C253.965 23.5455 253.711 23.4453 253.498 23.245C253.29 23.0447 253.185 22.804 253.185 22.5227C253.185 22.2415 253.29 22.0007 253.498 21.8004C253.711 21.6001 253.965 21.5 254.259 21.5C254.553 21.5 254.805 21.6001 255.013 21.8004C255.226 22.0007 255.333 22.2415 255.333 22.5227C255.333 22.804 255.226 23.0447 255.013 23.245C254.805 23.4453 254.553 23.5455 254.259 23.5455ZM259.272 29.0938V35H257.764V25.1818H259.221V26.7159H259.349C259.579 26.2173 259.928 25.8168 260.397 25.5142C260.866 25.2074 261.471 25.054 262.212 25.054C262.877 25.054 263.459 25.1903 263.957 25.4631C264.456 25.7315 264.844 26.1406 265.121 26.6903C265.398 27.2358 265.536 27.9261 265.536 28.7614V35H264.028V28.8636C264.028 28.0923 263.827 27.4915 263.427 27.0611C263.026 26.6264 262.477 26.4091 261.778 26.4091C261.296 26.4091 260.866 26.5135 260.487 26.7223C260.112 26.9311 259.815 27.2358 259.598 27.6364C259.381 28.0369 259.272 28.5227 259.272 29.0938ZM272.256 38.8864C271.527 38.8864 270.901 38.7926 270.377 38.6051C269.852 38.4219 269.416 38.179 269.066 37.8764C268.721 37.5781 268.446 37.2585 268.242 36.9176L269.443 36.0739C269.58 36.2528 269.752 36.4574 269.961 36.6875C270.17 36.9219 270.455 37.1243 270.818 37.2947C271.184 37.4695 271.664 37.5568 272.256 37.5568C273.048 37.5568 273.703 37.3651 274.218 36.9815C274.734 36.598 274.992 35.9972 274.992 35.179V33.1847H274.864C274.753 33.3636 274.595 33.5852 274.391 33.8494C274.191 34.1094 273.901 34.3416 273.521 34.5462C273.146 34.7464 272.639 34.8466 272 34.8466C271.208 34.8466 270.496 34.6591 269.865 34.2841C269.239 33.9091 268.742 33.3636 268.376 32.6477C268.014 31.9318 267.833 31.0625 267.833 30.0398C267.833 29.0341 268.009 28.1584 268.363 27.4126C268.717 26.6626 269.209 26.0831 269.84 25.674C270.47 25.2607 271.199 25.054 272.026 25.054C272.665 25.054 273.172 25.1605 273.547 25.3736C273.926 25.5824 274.216 25.821 274.416 26.0895C274.621 26.3537 274.779 26.571 274.889 26.7415H275.043V25.1818H276.5V35.2812C276.5 36.125 276.308 36.8111 275.925 37.3395C275.546 37.8722 275.034 38.2621 274.391 38.5092C273.752 38.7607 273.04 38.8864 272.256 38.8864ZM272.205 33.4915C272.81 33.4915 273.321 33.353 273.739 33.076C274.156 32.799 274.474 32.4006 274.691 31.8807C274.909 31.3608 275.017 30.7386 275.017 30.0142C275.017 29.3068 274.911 28.6825 274.698 28.1413C274.485 27.6001 274.169 27.1761 273.752 26.8693C273.334 26.5625 272.818 26.4091 272.205 26.4091C271.566 26.4091 271.033 26.571 270.607 26.8949C270.185 27.2187 269.867 27.6534 269.654 28.1989C269.446 28.7443 269.341 29.3494 269.341 30.0142C269.341 30.696 269.448 31.299 269.661 31.8232C269.878 32.343 270.198 32.7521 270.62 33.0504C271.046 33.3445 271.574 33.4915 272.205 33.4915ZM286.216 27.3807L284.861 27.7642C284.776 27.5384 284.65 27.3189 284.484 27.1058C284.322 26.8885 284.1 26.7095 283.819 26.5689C283.538 26.4283 283.178 26.358 282.739 26.358C282.138 26.358 281.637 26.4964 281.237 26.7734C280.84 27.0462 280.642 27.3935 280.642 27.8153C280.642 28.1903 280.779 28.4865 281.051 28.7038C281.324 28.9212 281.75 29.1023 282.33 29.2472L283.787 29.6051C284.665 29.8182 285.319 30.1442 285.749 30.5831C286.18 31.0178 286.395 31.5781 286.395 32.2642C286.395 32.8267 286.233 33.3295 285.909 33.7727C285.59 34.2159 285.142 34.5653 284.567 34.821C283.992 35.0767 283.323 35.2045 282.56 35.2045C281.558 35.2045 280.73 34.9872 280.073 34.5526C279.417 34.1179 279.002 33.483 278.827 32.6477L280.259 32.2898C280.395 32.8182 280.653 33.2145 281.032 33.4787C281.416 33.7429 281.916 33.875 282.534 33.875C283.237 33.875 283.796 33.7259 284.209 33.4276C284.627 33.125 284.835 32.7628 284.835 32.3409C284.835 32 284.716 31.7145 284.477 31.4844C284.239 31.25 283.872 31.0753 283.378 30.9602L281.742 30.5767C280.843 30.3636 280.182 30.0334 279.76 29.5859C279.343 29.1342 279.134 28.5696 279.134 27.892C279.134 27.3381 279.289 26.848 279.6 26.4219C279.916 25.9957 280.344 25.6612 280.885 25.4183C281.431 25.1754 282.048 25.054 282.739 25.054C283.71 25.054 284.473 25.267 285.027 25.6932C285.585 26.1193 285.982 26.6818 286.216 27.3807Z" fill="white"/>
</svg>
