<svg width="50" height="51" viewBox="0 0 50 51" fill="none" xmlns="http://www.w3.org/2000/svg">
<path d="M41.7708 23.4166H8.22917C7.1361 23.4166 6.25 24.3027 6.25 25.3958V25.6041C6.25 26.6972 7.1361 27.5833 8.22917 27.5833H41.7708C42.8639 27.5833 43.75 26.6972 43.75 25.6041V25.3958C43.75 24.3027 42.8639 23.4166 41.7708 23.4166Z" fill="white"/>
<path d="M41.7708 33.8333H8.22917C7.1361 33.8333 6.25 34.7194 6.25 35.8125V36.0208C6.25 37.1139 7.1361 38 8.22917 38H41.7708C42.8639 38 43.75 37.1139 43.75 36.0208V35.8125C43.75 34.7194 42.8639 33.8333 41.7708 33.8333Z" fill="white"/>
<path d="M41.7708 13H8.22917C7.1361 13 6.25 13.8861 6.25 14.9792V15.1875C6.25 16.2806 7.1361 17.1667 8.22917 17.1667H41.7708C42.8639 17.1667 43.75 16.2806 43.75 15.1875V14.9792C43.75 13.8861 42.8639 13 41.7708 13Z" fill="white"/>
</svg>
