<svg width="38" height="25" viewBox="0 0 38 25" fill="none" xmlns="http://www.w3.org/2000/svg">
<path d="M35.7708 10.4166H2.22917C1.1361 10.4166 0.25 11.3027 0.25 12.3958V12.6041C0.25 13.6972 1.1361 14.5833 2.22917 14.5833H35.7708C36.8639 14.5833 37.75 13.6972 37.75 12.6041V12.3958C37.75 11.3027 36.8639 10.4166 35.7708 10.4166Z" fill="#231F20"/>
<path d="M35.7708 20.8333H2.22917C1.1361 20.8333 0.25 21.7194 0.25 22.8125V23.0208C0.25 24.1139 1.1361 25 2.22917 25H35.7708C36.8639 25 37.75 24.1139 37.75 23.0208V22.8125C37.75 21.7194 36.8639 20.8333 35.7708 20.8333Z" fill="#231F20"/>
<path d="M35.7708 0H2.22917C1.1361 0 0.25 0.886103 0.25 1.97917V2.1875C0.25 3.28056 1.1361 4.16667 2.22917 4.16667H35.7708C36.8639 4.16667 37.75 3.28056 37.75 2.1875V1.97917C37.75 0.886103 36.8639 0 35.7708 0Z" fill="#231F20"/>
</svg>
