<svg width="63" height="50" viewBox="0 0 63 50" fill="none" xmlns="http://www.w3.org/2000/svg">
<path d="M62.1382 5.95541C59.8352 6.96939 57.3954 7.63871 54.8974 7.94183C57.5274 6.36103 59.4967 3.88197 60.4414 0.962463C58.0039 2.38499 55.3024 3.42049 52.4266 3.99719C50.5292 1.96831 48.0151 0.622649 45.2746 0.169182C42.534 -0.284284 39.7204 0.179817 37.2707 1.48942C34.821 2.79901 32.8722 4.88083 31.727 7.41158C30.5818 9.94233 30.3042 12.7804 30.9374 15.4851C20.4543 14.9904 11.163 9.95644 4.94484 2.34655C3.81398 4.2684 3.22413 6.46041 3.23781 8.69026C3.23781 13.0732 5.46772 16.9255 8.8459 19.1888C6.84375 19.125 4.88582 18.5837 3.13528 17.6099V17.7662C3.13415 20.6789 4.14071 23.5023 5.9842 25.7574C7.82769 28.0125 10.3946 29.5604 13.2493 30.1384C11.3995 30.6341 9.46211 30.7085 7.57973 30.3563C8.39032 32.8628 9.96298 35.0539 12.0784 36.6239C14.1938 38.1939 16.7464 39.0646 19.3803 39.1144C14.9192 42.6153 9.41098 44.5155 3.74018 44.5098C2.74056 44.5098 1.74351 44.4508 0.741333 44.3381C6.52298 48.04 13.2455 50.0051 20.1108 50C43.3172 50 55.9919 30.7869 55.9919 14.1523C55.9919 13.6166 55.9919 13.0757 55.9534 12.5375C58.4293 10.7557 60.565 8.54366 62.2587 6.00668L62.1382 5.95541Z" fill="black"/>
</svg>
