<svg width="51" height="50" viewBox="0 0 51 50" fill="none" xmlns="http://www.w3.org/2000/svg">
<path d="M25.2587 0C18.467 0 17.6191 0.03125 14.9524 0.15C12.2899 0.275 10.4774 0.69375 8.88367 1.3125C7.23992 1.95 5.84408 2.80625 4.4545 4.19583C3.06492 5.58542 2.20658 6.97917 1.57117 8.625C0.952417 10.2187 0.531584 12.0312 0.408667 14.6937C0.283667 17.3604 0.258667 18.2083 0.258667 25C0.258667 31.7917 0.289917 32.6396 0.408667 35.3063C0.533667 37.9667 0.952417 39.7812 1.57117 41.375C2.19886 43.0434 3.18283 44.5549 4.4545 45.8042C5.70299 47.0767 7.2147 48.0608 8.88367 48.6875C10.4795 49.3042 12.292 49.7271 14.9524 49.85C17.6191 49.975 18.467 50 25.2587 50C32.0503 50 32.8983 49.9687 35.5649 49.85C38.2253 49.725 40.0399 49.3042 41.6337 48.6875C43.3017 48.059 44.8131 47.0752 46.0628 45.8042C47.3358 44.556 48.32 43.0442 48.9462 41.375C49.5628 39.7812 49.9857 37.9667 50.1087 35.3063C50.2337 32.6396 50.2587 31.7917 50.2587 25C50.2587 18.2083 50.2274 17.3604 50.1087 14.6937C49.9837 12.0333 49.5628 10.2167 48.9462 8.625C48.3182 6.95671 47.3342 5.44527 46.0628 4.19583C44.8152 2.92217 43.3033 1.9379 41.6337 1.3125C40.0399 0.69375 38.2253 0.272917 35.5649 0.15C32.8983 0.025 32.0503 0 25.2587 0ZM25.2587 4.5C31.9316 4.5 32.7274 4.53333 35.3628 4.64792C37.8003 4.7625 39.1232 5.16667 40.0024 5.5125C41.1732 5.96458 42.0024 6.50625 42.8816 7.37917C43.7545 8.25417 44.2962 9.08542 44.7482 10.2562C45.0899 11.1354 45.4982 12.4583 45.6087 14.8958C45.7274 17.5333 45.7545 18.325 45.7545 25C45.7545 31.675 45.7232 32.4688 45.6003 35.1042C45.4732 37.5417 45.067 38.8646 44.7233 39.7437C44.3166 40.8287 43.6773 41.8114 42.8503 42.6229C42.0423 43.4506 41.0602 44.0882 39.9753 44.4896C39.1003 44.8312 37.7566 45.2396 35.3191 45.35C32.6649 45.4687 31.8837 45.4958 25.1962 45.4958C18.5066 45.4958 17.7253 45.4646 15.0732 45.3417C12.6337 45.2146 11.2899 44.8083 10.4149 44.4646C9.3293 44.0629 8.34758 43.4229 7.542 42.5917C6.70571 41.789 6.06432 40.8056 5.667 39.7167C5.32325 38.8417 4.91908 37.4979 4.792 35.0604C4.69825 32.4354 4.66492 31.625 4.66492 24.9687C4.66492 18.3104 4.69825 17.4979 4.792 14.8417C4.91908 12.4042 5.32325 11.0625 5.667 10.1875C6.1045 9 6.66492 8.1875 7.542 7.31042C8.41492 6.4375 9.2295 5.875 10.4149 5.43958C11.2899 5.09375 12.6045 4.6875 15.042 4.5625C17.6982 4.46875 18.4795 4.4375 25.1649 4.4375L25.2587 4.5ZM25.2587 12.1625C23.5728 12.1625 21.9035 12.4946 20.346 13.1397C18.7885 13.7848 17.3733 14.7304 16.1812 15.9225C14.9891 17.1146 14.0435 18.5298 13.3984 20.0873C12.7532 21.6448 12.4212 23.3142 12.4212 25C12.4212 26.6858 12.7532 28.3552 13.3984 29.9127C14.0435 31.4702 14.9891 32.8854 16.1812 34.0775C17.3733 35.2696 18.7885 36.2152 20.346 36.8603C21.9035 37.5054 23.5728 37.8375 25.2587 37.8375C28.6634 37.8375 31.9286 36.485 34.3361 34.0775C36.7436 31.67 38.0962 28.4047 38.0962 25C38.0962 21.5953 36.7436 18.33 34.3361 15.9225C31.9286 13.515 28.6634 12.1625 25.2587 12.1625ZM25.2587 33.3333C20.6545 33.3333 16.9253 29.6042 16.9253 25C16.9253 20.3958 20.6545 16.6667 25.2587 16.6667C29.8628 16.6667 33.592 20.3958 33.592 25C33.592 29.6042 29.8628 33.3333 25.2587 33.3333ZM41.6045 11.6562C41.5756 12.4326 41.2468 13.1674 40.6874 13.7064C40.1279 14.2454 39.3813 14.5465 38.6045 14.5465C37.8277 14.5465 37.0811 14.2454 36.5216 13.7064C35.9622 13.1674 35.6334 12.4326 35.6045 11.6562C35.6045 10.8606 35.9206 10.0975 36.4832 9.53493C37.0458 8.97232 37.8088 8.65625 38.6045 8.65625C39.4002 8.65625 40.1632 8.97232 40.7258 9.53493C41.2884 10.0975 41.6045 10.8606 41.6045 11.6562Z" fill="black"/>
</svg>
