# Blender v2.80 (sub 42) OBJ File: 'spaceshipTurtle.blend'
# www.blender.org
mtllib spaceshipTurtle.mtl
o Cube
v 0.586624 -0.038242 0.086852
v 0.586624 -0.181775 0.086852
v -0.586624 -0.038242 0.086852
v -0.586624 -0.181775 0.086852
v 0.586624 -0.038242 -0.609937
v 0.586624 -0.181775 -0.609937
v -0.586624 -0.038242 -0.609937
v -0.586624 -0.181775 -0.609937
v -0.417761 -0.193136 -0.734314
v 0.417761 -0.193136 -0.734314
v 0.375463 0.123021 0.578964
v -0.375463 0.123021 0.578964
v -0.417761 0.123021 -0.734314
v 0.417761 0.123021 -0.734314
v -0.391514 -0.193136 0.578964
v 0.391514 -0.193136 0.578964
v 1.575513 0.005060 -0.807892
v 1.575513 0.086703 -0.807892
v 1.575512 0.086703 -0.645452
v -1.575513 0.005060 -0.807892
v -1.575513 0.086703 -0.807892
v -1.575512 0.086703 -0.645452
v -1.575512 0.005060 -0.645452
v 1.575512 0.005060 -0.645452
v 0.297719 0.075168 0.682447
v -0.297719 0.075168 0.682447
v -0.329448 -0.165206 0.702641
v 0.329448 -0.165206 0.702641
v 0.140779 -0.050180 1.069645
v -0.140779 -0.050180 1.069645
v -0.140779 -0.102088 1.069645
v 0.140779 -0.102088 1.069645
v 0.240883 0.242269 0.572549
v -0.240883 0.242269 0.572549
v -0.243160 -0.207784 0.578964
v 0.243160 -0.207784 0.578964
v 0.243818 -0.207729 -0.734314
v -0.243818 -0.207729 -0.734314
v 0.242564 0.242022 -0.740729
v -0.242564 0.242022 -0.740729
v 0.202918 0.169386 0.753535
v -0.202918 0.169386 0.753535
v -0.147942 -0.172904 0.883317
v 0.147942 -0.172904 0.883317
v -0.085910 0.006700 1.102386
v 0.085910 0.006700 1.102386
v 0.085259 -0.117651 1.109200
v -0.085259 -0.117651 1.109200
v 0.295462 -0.120498 -0.843223
v 0.295451 0.121783 -0.842711
v -0.295462 -0.120498 -0.843223
v -0.295451 0.121783 -0.842711
v 0.183481 0.183151 -0.848283
v -0.183481 0.183151 -0.848283
v 0.192192 -0.129155 -0.842656
v -0.192192 -0.129155 -0.842656
v 0.331566 -0.153705 -0.842153
v 0.331566 0.143178 -0.842153
v -0.331566 -0.153705 -0.842153
v -0.331566 0.143178 -0.842153
v 0.192729 0.219270 -0.848568
v -0.192729 0.219270 -0.848568
v 0.193704 -0.165271 -0.842153
v -0.193704 -0.165271 -0.842153
v -0.187048 -0.125087 -0.826183
v -0.178573 0.178763 -0.831657
v 0.187048 -0.125087 -0.826183
v 0.178573 0.178763 -0.831657
v 0.287522 -0.116664 -0.826734
v 0.287512 0.119056 -0.826236
v -0.287522 -0.116664 -0.826734
v -0.287512 0.119056 -0.826236
v -0.002187 -0.172898 0.883317
v 0.000000 -0.122741 1.117635
v 0.000000 0.006700 1.110522
v 0.000000 -0.207729 -0.734314
v 0.000000 0.219270 -0.848568
v 0.000000 -0.165271 -0.842153
v 0.000000 0.183151 -0.848283
v 0.000000 -0.125087 -0.826183
v -0.001260 -0.155079 0.982310
v -0.459977 -0.190296 -0.703220
v -0.459977 0.082705 -0.703220
v -0.459977 -0.190296 0.455936
v -0.459977 0.082705 0.455936
v -0.251793 -0.138841 0.898221
v -0.244685 -0.019065 0.827945
v -0.144414 0.067041 0.925455
v -0.116613 -0.141880 1.000127
v -0.001416 0.067038 0.925455
v 0.000000 0.262941 0.572549
v 0.000000 0.262695 -0.740729
v 0.000000 -0.129155 -0.842656
v 0.000000 0.178763 -0.831657
v 0.000000 -0.207784 0.578964
v 0.000000 0.169381 0.753535
v 0.459977 -0.190296 -0.703220
v 0.459977 0.082705 -0.703220
v 0.459977 -0.190296 0.455936
v 0.459977 0.082705 0.455936
v 0.251793 -0.138841 0.898221
v 0.244685 -0.019065 0.827945
v 0.144414 0.067041 0.925455
v 0.116613 -0.141880 1.000127
vt 0.625000 0.500000
vt 0.375000 0.500000
vt 0.375000 0.500000
vt 0.625000 0.500000
vt 0.125000 0.718125
vt 0.375000 0.718125
vt 0.375000 0.750000
vt 0.125000 0.750000
vt 0.625000 0.500000
vt 0.625000 0.500000
vt 0.375000 0.500000
vt 0.375000 0.500000
vt 0.375000 0.218125
vt 0.625000 0.218125
vt 0.625000 0.250000
vt 0.375000 0.250000
vt 0.375000 0.968125
vt 0.625000 0.968125
vt 0.625000 1.000000
vt 0.375000 1.000000
vt 0.375000 0.542500
vt 0.625000 0.542500
vt 0.625000 0.542500
vt 0.375000 0.542500
vt 0.375000 0.218029
vt 0.375000 0.207500
vt 0.375000 0.207500
vt 0.375000 0.243250
vt 0.625000 0.957500
vt 0.625000 0.957500
vt 0.625000 0.993325
vt 0.625000 0.967884
vt 0.375000 0.172365
vt 0.375000 0.125000
vt 0.375000 0.124990
vt 0.375000 0.192809
vt 0.625000 0.957500
vt 0.375000 0.957500
vt 0.375000 0.922966
vt 0.625000 0.922835
vt 0.375000 0.707500
vt 0.125000 0.707500
vt 0.125000 0.707500
vt 0.375000 0.707500
vt 0.375000 0.968125
vt 0.375000 1.000000
vt 0.625000 1.000000
vt 0.625000 0.968125
vt 0.375000 0.250000
vt 0.625000 0.250000
vt 0.375000 0.218029
vt 0.375000 0.243250
vt 0.375000 0.207500
vt 0.375000 0.207500
vt 0.625000 0.957500
vt 0.625000 0.957500
vt 0.625000 0.942442
vt 0.625000 0.922835
vt 0.625000 0.250000
vt 0.375000 0.250000
vt 0.375000 0.750000
vt 0.125000 0.750000
vt 0.625000 1.000000
vt 0.375000 1.000000
vt 0.125000 0.718125
vt 0.125000 0.750000
vt 0.375000 0.750000
vt 0.375000 0.718125
vt 0.375000 0.707500
vt 0.125000 0.707500
vt 0.125000 0.707500
vt 0.375000 0.707500
vt 0.625000 0.957500
vt 0.625000 0.967884
vt 0.625000 0.993325
vt 0.625000 0.957500
vt 0.375000 1.000000
vt 0.625000 1.000000
vt 0.625000 0.207500
vt 0.625000 0.172699
vt 0.375000 0.207500
vt 0.158043 0.767524
vt 0.342831 0.768323
vt 0.375000 0.707500
vt 0.375000 0.707500
vt 0.125000 0.707500
vt 0.125000 0.707500
vt 0.375000 0.218125
vt 0.375000 0.250000
vt 0.625000 0.250000
vt 0.625000 0.218125
vt 0.375000 0.707500
vt 0.375000 0.707500
vt 0.125000 0.707500
vt 0.125000 0.707500
vt 0.375000 0.172365
vt 0.375000 0.207500
vt 0.375000 0.207500
vt 0.375000 0.192809
vt 0.625000 0.942442
vt 0.625000 0.957500
vt 0.158053 0.640242
vt 0.342828 0.640108
vt 0.625000 0.875000
vt 0.625000 0.874989
vt 0.125000 0.750000
vt 0.375000 0.750000
vt 0.625000 0.125000
vt 0.625000 0.172699
vt 0.375000 0.957500
vt 0.375000 0.922966
vt 0.375000 0.875000
vt 0.625000 0.207500
vt 0.375000 0.875000
vt 0.375000 0.922966
vt 0.375000 0.957500
vt 0.625000 0.172699
vt 0.625000 0.207500
vt 0.375000 0.250000
vt 0.625000 0.250000
vt 0.375000 0.207500
vt 0.625000 0.125000
vt 0.158043 0.767524
vt 0.342831 0.768323
vt 0.625000 0.880355
vt 0.375000 0.137453
vt 0.375000 0.131221
vt 0.375000 0.542500
vt 0.375000 0.542500
vt 0.625000 0.542500
vt 0.625000 0.542500
vt 0.625000 0.172699
vt 0.625000 0.531875
vt 0.375000 0.531875
vt 0.375000 0.531875
vt 0.625000 0.531875
vt 0.625000 0.887652
vt 0.625000 0.207500
vt 0.375000 0.250000
vt 0.625000 0.250000
vt 0.375000 0.922966
vt 0.375000 0.957500
vt 0.598791 0.579617
vt 0.594602 0.551548
vt 0.402873 0.551549
vt 0.398423 0.577415
vt 0.598791 0.579617
vt 0.398423 0.577415
vt 0.402873 0.551549
vt 0.594602 0.551548
vt 0.598792 0.625000
vt 0.398423 0.625002
vt 0.402873 0.551549
vt 0.594602 0.551548
vt 0.398424 0.625002
vt 0.398423 0.577415
vt 0.375000 0.577034
vt 0.375000 0.625000
vt 0.598791 0.579617
vt 0.598792 0.625000
vt 0.625000 0.625000
vt 0.625000 0.577301
vt 0.594602 0.551548
vt 0.598791 0.579617
vt 0.398423 0.577415
vt 0.402873 0.551549
vt 0.625000 0.577301
vt 0.375000 0.577034
vn 0.1963 0.0000 -0.9805
vn -0.9459 0.0000 0.3246
vn -0.1963 0.0000 -0.9805
vn -0.6906 0.7232 -0.0000
vn -0.0671 -0.9977 -0.0000
vn -0.7811 0.0000 -0.6244
vn -0.7799 0.4759 0.4065
vn 0.3565 -0.8589 0.3677
vn 0.0422 0.9061 0.4211
vn -0.0904 -0.9959 0.0009
vn -0.8444 0.0916 0.5278
vn 0.0671 -0.9977 0.0000
vn -1.0000 0.0000 0.0000
vn 0.7799 0.4759 0.4065
vn 0.1784 -0.9620 0.2067
vn 0.1254 0.9921 -0.0000
vn -0.5951 0.0000 0.8036
vn -0.1856 -0.9826 0.0000
vn 0.9459 0.0000 0.3246
vn -0.8668 0.2192 0.4479
vn -0.3565 -0.8589 0.3677
vn 0.1856 -0.9826 0.0000
vn 0.6093 0.7928 0.0101
vn -0.5555 0.0301 0.8310
vn 0.8444 0.0916 0.5278
vn 0.6906 0.7232 -0.0000
vn 0.8668 0.2192 0.4479
vn -0.6601 0.5564 0.5047
vn -0.1784 -0.9620 0.2067
vn -0.0946 0.0543 0.9940
vn 0.0000 -0.9935 0.1139
vn 0.5951 0.0000 0.8036
vn -0.0852 0.9964 -0.0001
vn -0.0768 -0.9151 -0.3960
vn 0.0000 -1.0000 -0.0000
vn -0.6093 0.7928 0.0101
vn 0.0000 -0.9305 -0.3663
vn 0.0904 -0.9959 0.0009
vn -0.5079 0.7958 -0.3299
vn 1.0000 0.0000 0.0000
vn 0.6601 0.5564 0.5047
vn -0.0452 0.9521 -0.3026
vn -0.0422 0.9061 0.4211
vn 0.0946 0.0543 0.9940
vn 0.0330 -0.9738 0.2250
vn -0.0113 0.9481 0.3179
vn 0.7811 0.0000 -0.6244
vn -0.0338 -0.9737 0.2254
vn 0.5555 0.0301 0.8310
vn 0.0452 0.9521 -0.3026
vn -0.5930 0.0000 -0.8052
vn 0.0111 0.9481 0.3178
vn -0.2663 -0.9272 0.2633
vn -0.9026 0.1939 0.3844
vn 0.5930 0.0000 -0.8052
vn -0.0774 -0.9690 0.2346
vn 0.5079 0.7958 -0.3299
vn -0.1254 0.9921 -0.0000
vn 0.0768 -0.9151 -0.3960
vn 0.0852 0.9964 -0.0001
vn 0.2663 -0.9272 0.2633
vn 0.9026 0.1939 0.3844
vn 0.0765 -0.9693 0.2338
vn 0.0211 -0.0089 -0.9997
vn -0.0211 -0.0089 -0.9997
vn 0.0000 -0.0180 -0.9998
vn -0.9009 0.0009 -0.4340
vn -0.0000 0.9708 -0.2398
vn 0.0000 -0.0139 -0.9999
vn -0.4372 -0.8293 -0.3480
vn -0.0000 -0.0079 -1.0000
vn 0.4372 -0.8293 -0.3480
vn 0.0820 0.9613 -0.2630
vn 0.0227 0.0010 -0.9997
vn -0.0227 0.0010 -0.9997
vn -0.0351 -0.0230 -0.9991
vn 0.0004 -0.0229 -0.9997
vn 0.0351 -0.0230 -0.9991
vn 0.9009 0.0009 -0.4340
vn 0.0000 -0.9669 -0.2552
vn -0.0820 0.9613 -0.2630
vn -0.0004 -0.0229 -0.9997
vn 0.5931 0.0000 -0.8052
vn -0.5931 0.0000 -0.8052
vn 0.0517 -0.9987 0.0005
vn -0.0517 -0.9987 0.0005
vn -0.5416 0.8406 0.0093
vn -0.8506 0.0232 0.5253
vn 0.5416 0.8406 0.0093
vn 0.8506 0.0232 0.5253
vn 0.0000 0.8593 0.5115
vn -0.7795 0.3718 0.5042
vn 0.7795 0.3718 0.5042
usemtl body
s off
f 7/1/1 8/2/1 20/3/1 21/4/1
f 84/5/2 85/6/2 3/7/2 4/8/2
f 5/9/3 18/10/3 17/11/3 6/12/3
f 85/13/4 83/14/4 7/15/4 3/16/4
f 82/17/5 84/18/5 4/19/5 8/20/5
f 9/21/6 13/22/6 60/23/6 59/24/6
f 88/25/7 87/26/7 30/27/7 45/28/7
f 101/29/8 32/30/8 47/31/8 104/32/8
f 33/33/9 91/34/9 96/35/9 41/36/9
f 15/37/10 9/38/10 38/39/10 35/40/10
f 12/41/11 15/42/11 27/43/11 26/44/11
f 97/45/12 6/46/12 2/47/12 99/48/12
f 23/49/13 22/50/13 21/4/13 20/3/13
f 103/51/14 46/52/14 29/53/14 102/54/14
f 16/55/15 28/56/15 44/57/15 36/58/15
f 3/16/16 7/15/16 21/59/16 22/60/16
f 4/8/17 3/7/17 22/61/17 23/62/17
f 8/20/18 4/19/18 23/63/18 20/64/18
f 99/65/19 2/66/19 1/67/19 100/68/19
f 87/69/20 86/70/20 31/71/20 30/72/20
f 86/73/21 89/74/21 48/75/21 31/76/21
f 6/46/22 17/77/22 24/78/22 2/47/22
f 14/79/23 39/80/23 33/33/23 11/81/23
f 30/72/24 31/71/24 48/82/24 45/83/24
f 11/84/25 25/85/25 28/86/25 16/87/25
f 100/88/26 1/89/26 5/90/26 98/91/26
f 102/92/27 29/93/27 32/94/27 101/95/27
f 34/96/28 12/97/28 26/98/28 42/99/28
f 15/37/29 35/40/29 43/100/29 27/101/29
f 74/102/30 75/103/30 45/83/30 48/82/30
f 95/104/31 73/105/31 43/100/31 35/40/31
f 2/66/32 24/106/32 19/107/32 1/67/32
f 91/34/33 92/108/33 40/109/33 34/96/33
f 38/39/34 9/38/34 59/110/34 64/111/34
f 76/112/35 95/104/35 35/40/35 38/39/35
f 13/113/36 12/97/36 34/96/36 40/109/36
f 76/112/37 38/39/37 64/111/37 78/114/37
f 16/55/38 36/58/38 37/115/38 10/116/38
f 13/113/39 40/109/39 62/117/39 60/118/39
f 24/119/40 17/11/40 18/10/40 19/120/40
f 33/33/41 41/36/41 25/121/41 11/81/41
f 95/104/31 36/58/31 44/57/31 73/105/31
f 76/112/35 37/115/35 36/58/35 95/104/35
f 40/109/42 92/108/42 77/122/42 62/117/42
f 34/96/43 42/99/43 96/35/43 91/34/43
f 74/102/44 47/123/44 46/124/44 75/103/44
f 73/105/45 44/57/45 104/32/45 81/125/45
f 88/25/46 45/28/46 75/126/46 90/127/46
f 10/128/47 57/129/47 58/130/47 14/131/47
f 73/105/48 81/125/48 89/74/48 43/100/48
f 29/93/49 46/124/49 47/123/49 32/94/49
f 39/80/50 61/132/50 77/122/50 92/108/50
f 8/2/51 7/1/51 83/133/51 82/134/51
f 103/51/52 90/127/52 75/126/52 46/52/52
f 27/101/53 43/100/53 89/74/53 86/73/53
f 26/44/54 27/43/54 86/70/54 87/69/54
f 6/12/55 97/135/55 98/136/55 5/9/55
f 89/74/56 81/125/56 74/137/56 48/75/56
f 14/79/57 58/138/57 61/132/57 39/80/57
f 1/89/58 19/139/58 18/140/58 5/90/58
f 37/115/59 63/141/59 57/142/59 10/116/59
f 91/34/60 33/33/60 39/80/60 92/108/60
f 76/112/37 78/114/37 63/141/37 37/115/37
f 28/56/61 101/29/61 104/32/61 44/57/61
f 25/85/62 102/92/62 101/95/62 28/86/62
f 104/32/63 47/31/63 74/137/63 81/125/63
usemtl exhaust
f 68/143/64 70/144/64 69/145/64 67/146/64
f 66/147/65 65/148/65 71/149/65 72/150/65
f 65/148/66 66/147/66 94/151/66 80/152/66
f 67/146/66 80/152/66 94/151/66 68/143/66
usemtl tail
f 49/153/67 69/145/67 70/144/67 50/154/67
f 93/155/68 80/152/68 67/146/68 55/156/68
f 55/156/69 63/157/69 78/158/69 93/155/69
f 50/154/70 70/144/70 68/143/70 53/159/70
f 79/160/71 77/161/71 61/162/71 53/159/71
f 52/163/72 54/164/72 66/147/72 72/150/72
f 56/165/73 51/166/73 71/149/73 65/148/73
f 50/154/74 58/130/74 57/129/74 49/153/74
f 52/163/75 51/166/75 59/24/75 60/23/75
f 79/160/71 54/164/71 62/167/71 77/161/71
f 54/164/76 52/163/76 60/23/76 62/167/76
f 51/166/77 56/165/77 64/168/77 59/24/77
f 53/159/78 61/162/78 58/130/78 50/154/78
f 93/155/68 56/165/68 65/148/68 80/152/68
f 51/166/79 52/163/79 72/150/79 71/149/79
f 56/165/69 93/155/69 78/158/69 64/168/69
f 54/164/80 79/160/80 94/151/80 66/147/80
f 55/156/81 67/146/81 69/145/81 49/153/81
f 49/153/82 57/129/82 63/157/82 55/156/82
f 53/159/80 68/143/80 94/151/80 79/160/80
usemtl trim
f 97/135/83 10/128/83 14/131/83 98/136/83
f 82/134/84 83/133/84 13/22/84 9/21/84
f 10/116/85 97/45/85 99/48/85 16/55/85
f 9/38/86 15/37/86 84/18/86 82/17/86
f 12/97/87 13/113/87 83/14/87 85/13/87
f 15/42/88 12/41/88 85/6/88 84/5/88
f 11/81/89 100/88/89 98/91/89 14/79/89
f 16/87/90 99/65/90 100/68/90 11/84/90
usemtl cockpit
f 42/99/91 88/25/91 90/127/91 96/35/91
f 42/99/92 26/98/92 87/26/92 88/25/92
f 41/36/91 96/35/91 90/127/91 103/51/91
f 41/36/93 103/51/93 102/54/93 25/121/93
