<svg width="115" height="18" viewBox="0 0 115 18" fill="none" xmlns="http://www.w3.org/2000/svg">
<path d="M9.88565 5C9.74503 4.5696 9.55966 4.18395 9.32955 3.84304C9.10369 3.49787 8.8331 3.20383 8.51776 2.96094C8.20668 2.71804 7.85298 2.53267 7.45668 2.40483C7.06037 2.27699 6.62571 2.21307 6.1527 2.21307C5.37713 2.21307 4.67188 2.41335 4.03693 2.81392C3.40199 3.21449 2.89702 3.80469 2.52202 4.58452C2.14702 5.36435 1.95952 6.32102 1.95952 7.45455C1.95952 8.58807 2.14915 9.54474 2.52841 10.3246C2.90767 11.1044 3.42116 11.6946 4.06889 12.0952C4.71662 12.4957 5.44531 12.696 6.25497 12.696C7.00497 12.696 7.66548 12.5362 8.23651 12.2166C8.81179 11.8928 9.25923 11.4368 9.57884 10.8487C9.9027 10.2564 10.0646 9.55966 10.0646 8.75852L10.5504 8.8608H6.61293V7.45455H11.5987V8.8608C11.5987 9.93892 11.3686 10.8764 10.9084 11.6733C10.4524 12.4702 9.82173 13.0881 9.01634 13.527C8.2152 13.9616 7.29474 14.179 6.25497 14.179C5.09588 14.179 4.07741 13.9062 3.19957 13.3608C2.32599 12.8153 1.64418 12.0398 1.15412 11.0341C0.668324 10.0284 0.425426 8.83523 0.425426 7.45455C0.425426 6.41903 0.56392 5.48793 0.840909 4.66122C1.12216 3.83026 1.51847 3.12287 2.02983 2.53906C2.54119 1.95526 3.14631 1.50781 3.84517 1.19673C4.54403 0.885653 5.31321 0.730113 6.1527 0.730113C6.84304 0.730113 7.48651 0.834517 8.0831 1.04332C8.68395 1.24787 9.21875 1.53977 9.6875 1.91903C10.1605 2.29403 10.5547 2.74361 10.87 3.26776C11.1854 3.78764 11.4027 4.36506 11.522 5H9.88565ZM15.6177 8.09375V14H14.1092V0.909091H15.6177V5.71591H15.7456C15.9757 5.20881 16.3208 4.80611 16.7811 4.50781C17.2456 4.20526 17.8635 4.05398 18.6348 4.05398C19.3038 4.05398 19.8897 4.18821 20.3926 4.45668C20.8954 4.72088 21.2853 5.12784 21.5623 5.67756C21.8436 6.22301 21.9842 6.91761 21.9842 7.76136V14H20.4757V7.86364C20.4757 7.08381 20.2733 6.48082 19.8684 6.05469C19.4679 5.62429 18.9118 5.40909 18.2001 5.40909C17.7058 5.40909 17.2626 5.51349 16.8706 5.7223C16.4828 5.93111 16.176 6.2358 15.9501 6.63636C15.7285 7.03693 15.6177 7.52273 15.6177 8.09375ZM28.7326 14.2045C27.8462 14.2045 27.0685 13.9936 26.3995 13.5717C25.7347 13.1499 25.2148 12.5597 24.8398 11.8011C24.4691 11.0426 24.2837 10.1562 24.2837 9.14205C24.2837 8.11932 24.4691 7.22656 24.8398 6.46378C25.2148 5.70099 25.7347 5.10866 26.3995 4.68679C27.0685 4.26491 27.8462 4.05398 28.7326 4.05398C29.619 4.05398 30.3945 4.26491 31.0593 4.68679C31.7283 5.10866 32.2482 5.70099 32.619 6.46378C32.994 7.22656 33.1815 8.11932 33.1815 9.14205C33.1815 10.1562 32.994 11.0426 32.619 11.8011C32.2482 12.5597 31.7283 13.1499 31.0593 13.5717C30.3945 13.9936 29.619 14.2045 28.7326 14.2045ZM28.7326 12.8494C29.4059 12.8494 29.9599 12.6768 30.3945 12.3317C30.8292 11.9865 31.1509 11.5327 31.3597 10.9702C31.5685 10.4077 31.6729 9.7983 31.6729 9.14205C31.6729 8.4858 31.5685 7.87429 31.3597 7.30753C31.1509 6.74077 30.8292 6.28267 30.3945 5.93324C29.9599 5.58381 29.4059 5.40909 28.7326 5.40909C28.0593 5.40909 27.5053 5.58381 27.0707 5.93324C26.636 6.28267 26.3143 6.74077 26.1055 7.30753C25.8967 7.87429 25.7923 8.4858 25.7923 9.14205C25.7923 9.7983 25.8967 10.4077 26.1055 10.9702C26.3143 11.5327 26.636 11.9865 27.0707 12.3317C27.5053 12.6768 28.0593 12.8494 28.7326 12.8494ZM42.4387 6.38068L41.0836 6.7642C40.9984 6.53835 40.8727 6.31889 40.7065 6.10582C40.5446 5.88849 40.323 5.70952 40.0417 5.56889C39.7605 5.42827 39.4004 5.35795 38.9615 5.35795C38.3606 5.35795 37.8599 5.49645 37.4593 5.77344C37.063 6.04616 36.8649 6.39347 36.8649 6.81534C36.8649 7.19034 37.0012 7.48651 37.274 7.70384C37.5467 7.92116 37.9728 8.10227 38.5524 8.24716L40.0098 8.60511C40.8876 8.81818 41.5417 9.14418 41.9721 9.5831C42.4025 10.0178 42.6177 10.5781 42.6177 11.2642C42.6177 11.8267 42.4558 12.3295 42.1319 12.7727C41.8123 13.2159 41.3649 13.5653 40.7896 13.821C40.2143 14.0767 39.5453 14.2045 38.7825 14.2045C37.7811 14.2045 36.9522 13.9872 36.296 13.5526C35.6397 13.1179 35.2243 12.483 35.0495 11.6477L36.4814 11.2898C36.6177 11.8182 36.8755 12.2145 37.2548 12.4787C37.6383 12.7429 38.139 12.875 38.7569 12.875C39.4601 12.875 40.0183 12.7259 40.4316 12.4276C40.8493 12.125 41.0581 11.7628 41.0581 11.3409C41.0581 11 40.9387 10.7145 40.7001 10.4844C40.4615 10.25 40.095 10.0753 39.6007 9.96023L37.9643 9.5767C37.0652 9.36364 36.4047 9.03338 35.9828 8.58594C35.5652 8.13423 35.3564 7.5696 35.3564 6.89205C35.3564 6.33807 35.5119 5.84801 35.823 5.42188C36.1383 4.99574 36.5666 4.66122 37.1078 4.41832C37.6532 4.17543 38.2711 4.05398 38.9615 4.05398C39.9331 4.05398 40.6958 4.26705 41.2498 4.69318C41.8081 5.11932 42.2044 5.68182 42.4387 6.38068ZM49.1584 4.18182V5.46023H44.0703V4.18182H49.1584ZM45.5533 1.82955H47.0618V11.1875C47.0618 11.6136 47.1236 11.9332 47.2472 12.1463C47.375 12.3551 47.5369 12.4957 47.733 12.5682C47.9332 12.6364 48.1442 12.6705 48.3658 12.6705C48.532 12.6705 48.6683 12.6619 48.7749 12.6449C48.8814 12.6236 48.9666 12.6065 49.0305 12.5938L49.3374 13.9489C49.2351 13.9872 49.0923 14.0256 48.9091 14.0639C48.7259 14.1065 48.4936 14.1278 48.2124 14.1278C47.7862 14.1278 47.3686 14.0362 46.9595 13.853C46.5547 13.6697 46.218 13.3906 45.9496 13.0156C45.6854 12.6406 45.5533 12.1676 45.5533 11.5966V1.82955ZM51.843 14V0.909091H56.2663C57.2933 0.909091 58.1328 1.09446 58.7848 1.4652C59.4411 1.83168 59.9268 2.32812 60.2422 2.95455C60.5575 3.58097 60.7152 4.27983 60.7152 5.05114C60.7152 5.82244 60.5575 6.52344 60.2422 7.15412C59.9311 7.7848 59.4496 8.28764 58.7976 8.66264C58.1456 9.03338 57.3104 9.21875 56.2919 9.21875H53.1214V7.8125H56.2408C56.9439 7.8125 57.5085 7.69105 57.9347 7.44815C58.3608 7.20526 58.6697 6.87713 58.8615 6.46378C59.0575 6.04616 59.1555 5.57528 59.1555 5.05114C59.1555 4.52699 59.0575 4.05824 58.8615 3.64489C58.6697 3.23153 58.3587 2.90767 57.9283 2.6733C57.4979 2.43466 56.9268 2.31534 56.2152 2.31534H53.4283V14H51.843ZM67.0753 14.2045C66.1293 14.2045 65.3132 13.9957 64.6271 13.5781C63.9453 13.1562 63.419 12.5682 63.0483 11.8139C62.6818 11.0554 62.4986 10.1733 62.4986 9.16761C62.4986 8.16193 62.6818 7.27557 63.0483 6.50852C63.419 5.73722 63.9347 5.13636 64.5952 4.70597C65.2599 4.27131 66.0355 4.05398 66.9219 4.05398C67.4332 4.05398 67.9382 4.1392 68.4368 4.30966C68.9354 4.48011 69.3892 4.7571 69.7983 5.14062C70.2074 5.51989 70.5334 6.02273 70.7763 6.64915C71.0192 7.27557 71.1406 8.04687 71.1406 8.96307V9.60227H63.5724V8.2983H69.6065C69.6065 7.74432 69.4957 7.25 69.2741 6.81534C69.0568 6.38068 68.7457 6.03764 68.3409 5.78622C67.9403 5.5348 67.4673 5.40909 66.9219 5.40909C66.321 5.40909 65.8011 5.55824 65.3622 5.85653C64.9276 6.15057 64.593 6.53409 64.3587 7.0071C64.1243 7.48011 64.0071 7.98722 64.0071 8.52841V9.39773C64.0071 10.1392 64.1349 10.7678 64.3906 11.2834C64.6506 11.7947 65.0107 12.1847 65.4709 12.4531C65.9311 12.7173 66.4659 12.8494 67.0753 12.8494C67.4716 12.8494 67.8295 12.794 68.1491 12.6832C68.473 12.5682 68.7521 12.3977 68.9865 12.1719C69.2209 11.9418 69.402 11.6562 69.5298 11.3153L70.9872 11.7244C70.8338 12.2188 70.576 12.6534 70.2138 13.0284C69.8516 13.3991 69.4041 13.6889 68.8714 13.8977C68.3388 14.1023 67.7401 14.2045 67.0753 14.2045ZM74.9439 8.09375V14H73.4354V4.18182H74.8928V5.71591H75.0206C75.2507 5.21733 75.6001 4.81676 76.0689 4.5142C76.5376 4.20739 77.1428 4.05398 77.8842 4.05398C78.549 4.05398 79.1307 4.19034 79.6293 4.46307C80.1278 4.73153 80.5156 5.14062 80.7926 5.69034C81.0696 6.2358 81.2081 6.92614 81.2081 7.76136V14H79.6996V7.86364C79.6996 7.09233 79.4993 6.49148 79.0987 6.06108C78.6982 5.62642 78.1484 5.40909 77.4496 5.40909C76.968 5.40909 76.5376 5.51349 76.1584 5.7223C75.7834 5.93111 75.4872 6.2358 75.2699 6.63636C75.0526 7.03693 74.9439 7.52273 74.9439 8.09375ZM85.0641 14.1023C84.7488 14.1023 84.4782 13.9893 84.2523 13.7635C84.0265 13.5376 83.9135 13.267 83.9135 12.9517C83.9135 12.6364 84.0265 12.3658 84.2523 12.1399C84.4782 11.9141 84.7488 11.8011 85.0641 11.8011C85.3794 11.8011 85.65 11.9141 85.8759 12.1399C86.1017 12.3658 86.2147 12.6364 86.2147 12.9517C86.2147 13.1605 86.1614 13.3523 86.0549 13.527C85.9526 13.7017 85.8141 13.8423 85.6394 13.9489C85.4689 14.0511 85.2772 14.1023 85.0641 14.1023ZM92.9103 14.2045C92.024 14.2045 91.2463 13.9936 90.5772 13.5717C89.9125 13.1499 89.3926 12.5597 89.0176 11.8011C88.6468 11.0426 88.4615 10.1562 88.4615 9.14205C88.4615 8.11932 88.6468 7.22656 89.0176 6.46378C89.3926 5.70099 89.9125 5.10866 90.5772 4.68679C91.2463 4.26491 92.024 4.05398 92.9103 4.05398C93.7967 4.05398 94.5723 4.26491 95.237 4.68679C95.9061 5.10866 96.426 5.70099 96.7967 6.46378C97.1717 7.22656 97.3592 8.11932 97.3592 9.14205C97.3592 10.1562 97.1717 11.0426 96.7967 11.8011C96.426 12.5597 95.9061 13.1499 95.237 13.5717C94.5723 13.9936 93.7967 14.2045 92.9103 14.2045ZM92.9103 12.8494C93.5836 12.8494 94.1376 12.6768 94.5723 12.3317C95.0069 11.9865 95.3287 11.5327 95.5375 10.9702C95.7463 10.4077 95.8507 9.7983 95.8507 9.14205C95.8507 8.4858 95.7463 7.87429 95.5375 7.30753C95.3287 6.74077 95.0069 6.28267 94.5723 5.93324C94.1376 5.58381 93.5836 5.40909 92.9103 5.40909C92.237 5.40909 91.6831 5.58381 91.2484 5.93324C90.8137 6.28267 90.492 6.74077 90.2832 7.30753C90.0744 7.87429 89.97 8.4858 89.97 9.14205C89.97 9.7983 90.0744 10.4077 90.2832 10.9702C90.492 11.5327 90.8137 11.9865 91.2484 12.3317C91.6831 12.6768 92.237 12.8494 92.9103 12.8494ZM99.6619 14V4.18182H101.119V5.66477H101.222C101.401 5.17898 101.724 4.7848 102.193 4.48224C102.662 4.17969 103.19 4.02841 103.778 4.02841C103.889 4.02841 104.028 4.03054 104.194 4.0348C104.36 4.03906 104.486 4.04545 104.571 4.05398V5.58807C104.52 5.57528 104.403 5.55611 104.219 5.53054C104.04 5.50071 103.851 5.4858 103.651 5.4858C103.173 5.4858 102.747 5.58594 102.372 5.78622C102.001 5.98224 101.707 6.25497 101.49 6.6044C101.277 6.94957 101.17 7.34375 101.17 7.78693V14H99.6619ZM110.023 17.8864C109.295 17.8864 108.668 17.7926 108.144 17.6051C107.62 17.4219 107.183 17.179 106.834 16.8764C106.489 16.5781 106.214 16.2585 106.009 15.9176L107.211 15.0739C107.347 15.2528 107.52 15.4574 107.729 15.6875C107.938 15.9219 108.223 16.1243 108.585 16.2947C108.952 16.4695 109.431 16.5568 110.023 16.5568C110.816 16.5568 111.47 16.3651 111.986 15.9815C112.501 15.598 112.759 14.9972 112.759 14.179V12.1847H112.631C112.521 12.3636 112.363 12.5852 112.158 12.8494C111.958 13.1094 111.668 13.3416 111.289 13.5462C110.914 13.7464 110.407 13.8466 109.768 13.8466C108.975 13.8466 108.264 13.6591 107.633 13.2841C107.006 12.9091 106.51 12.3636 106.143 11.6477C105.781 10.9318 105.6 10.0625 105.6 9.03977C105.6 8.03409 105.777 7.15838 106.131 6.41264C106.484 5.66264 106.977 5.0831 107.607 4.67401C108.238 4.26065 108.967 4.05398 109.793 4.05398C110.433 4.05398 110.94 4.16051 111.315 4.37358C111.694 4.58239 111.984 4.82102 112.184 5.08949C112.389 5.35369 112.546 5.57102 112.657 5.74148H112.81V4.18182H114.268V14.2812C114.268 15.125 114.076 15.8111 113.692 16.3395C113.313 16.8722 112.802 17.2621 112.158 17.5092C111.519 17.7607 110.808 17.8864 110.023 17.8864ZM109.972 12.4915C110.577 12.4915 111.089 12.353 111.506 12.076C111.924 11.799 112.241 11.4006 112.459 10.8807C112.676 10.3608 112.785 9.73864 112.785 9.0142C112.785 8.30682 112.678 7.68253 112.465 7.14134C112.252 6.60014 111.937 6.17614 111.519 5.86932C111.102 5.5625 110.586 5.40909 109.972 5.40909C109.333 5.40909 108.8 5.57102 108.374 5.89489C107.952 6.21875 107.635 6.65341 107.422 7.19886C107.213 7.74432 107.109 8.34943 107.109 9.0142C107.109 9.69602 107.215 10.299 107.428 10.8232C107.646 11.343 107.965 11.7521 108.387 12.0504C108.813 12.3445 109.342 12.4915 109.972 12.4915Z" fill="white"/>
</svg>
