<svg width="215" height="15" viewBox="0 0 215 15" fill="none" xmlns="http://www.w3.org/2000/svg">
<path d="M0.0940164 14V0.909091H4.51731C5.54004 0.909091 6.37953 1.08381 7.03578 1.43324C7.69203 1.77841 8.17782 2.25355 8.49316 2.85866C8.80851 3.46378 8.96618 4.15199 8.96618 4.9233C8.96618 5.6946 8.80851 6.37855 8.49316 6.97514C8.17782 7.57173 7.69416 8.04048 7.04217 8.38139C6.39018 8.71804 5.55708 8.88636 4.54288 8.88636H0.963335V7.45455H4.49174C5.19061 7.45455 5.75311 7.35227 6.17924 7.14773C6.60964 6.94318 6.92072 6.65341 7.11248 6.27841C7.30851 5.89915 7.40652 5.44744 7.40652 4.9233C7.40652 4.39915 7.30851 3.94105 7.11248 3.54901C6.91646 3.15696 6.60325 2.8544 6.17285 2.64134C5.74245 2.42401 5.17356 2.31534 4.46618 2.31534H1.67924V14H0.0940164ZM6.25595 8.11932L9.47754 14H7.63663L4.46618 8.11932H6.25595ZM15.4142 14.2045C14.4681 14.2045 13.6521 13.9957 12.966 13.5781C12.2842 13.1562 11.7579 12.5682 11.3872 11.8139C11.0207 11.0554 10.8374 10.1733 10.8374 9.16761C10.8374 8.16193 11.0207 7.27557 11.3872 6.50852C11.7579 5.73722 12.2735 5.13636 12.934 4.70597C13.5988 4.27131 14.3744 4.05398 15.2607 4.05398C15.7721 4.05398 16.2771 4.1392 16.7757 4.30966C17.2742 4.48011 17.7281 4.7571 18.1372 5.14062C18.5463 5.51989 18.8722 6.02273 19.1151 6.64915C19.358 7.27557 19.4795 8.04687 19.4795 8.96307V9.60227H11.9113V8.2983H17.9454C17.9454 7.74432 17.8346 7.25 17.613 6.81534C17.3957 6.38068 17.0846 6.03764 16.6798 5.78622C16.2792 5.5348 15.8062 5.40909 15.2607 5.40909C14.6599 5.40909 14.14 5.55824 13.7011 5.85653C13.2664 6.15057 12.9319 6.53409 12.6975 7.0071C12.4632 7.48011 12.346 7.98722 12.346 8.52841V9.39773C12.346 10.1392 12.4738 10.7678 12.7295 11.2834C12.9894 11.7947 13.3495 12.1847 13.8097 12.4531C14.27 12.7173 14.8048 12.8494 15.4142 12.8494C15.8105 12.8494 16.1684 12.794 16.488 12.6832C16.8119 12.5682 17.091 12.3977 17.3254 12.1719C17.5597 11.9418 17.7409 11.6562 17.8687 11.3153L19.3261 11.7244C19.1727 12.2188 18.9149 12.6534 18.5526 13.0284C18.1904 13.3991 17.743 13.6889 17.2103 13.8977C16.6776 14.1023 16.0789 14.2045 15.4142 14.2045ZM28.7288 6.38068L27.3737 6.7642C27.2884 6.53835 27.1627 6.31889 26.9965 6.10582C26.8346 5.88849 26.613 5.70952 26.3318 5.56889C26.0505 5.42827 25.6904 5.35795 25.2515 5.35795C24.6507 5.35795 24.1499 5.49645 23.7494 5.77344C23.3531 6.04616 23.1549 6.39347 23.1549 6.81534C23.1549 7.19034 23.2913 7.48651 23.564 7.70384C23.8367 7.92116 24.2629 8.10227 24.8424 8.24716L26.2998 8.60511C27.1776 8.81818 27.8318 9.14418 28.2622 9.5831C28.6926 10.0178 28.9078 10.5781 28.9078 11.2642C28.9078 11.8267 28.7458 12.3295 28.422 12.7727C28.1024 13.2159 27.6549 13.5653 27.0796 13.821C26.5044 14.0767 25.8353 14.2045 25.0725 14.2045C24.0711 14.2045 23.2423 13.9872 22.586 13.5526C21.9298 13.1179 21.5143 12.483 21.3396 11.6477L22.7714 11.2898C22.9078 11.8182 23.1656 12.2145 23.5448 12.4787C23.9284 12.7429 24.4291 12.875 25.047 12.875C25.7501 12.875 26.3083 12.7259 26.7217 12.4276C27.1393 12.125 27.3481 11.7628 27.3481 11.3409C27.3481 11 27.2288 10.7145 26.9901 10.4844C26.7515 10.25 26.385 10.0753 25.8907 9.96023L24.2544 9.5767C23.3552 9.36364 22.6947 9.03338 22.2728 8.58594C21.8552 8.13423 21.6464 7.5696 21.6464 6.89205C21.6464 6.33807 21.8019 5.84801 22.113 5.42188C22.4284 4.99574 22.8566 4.66122 23.3978 4.41832C23.9433 4.17543 24.5612 4.05398 25.2515 4.05398C26.2231 4.05398 26.9859 4.26705 27.5399 4.69318C28.0981 5.11932 28.4944 5.68182 28.7288 6.38068ZM37.366 9.9858V4.18182H38.8746V14H37.366V12.3381H37.2638C37.0336 12.8366 36.6757 13.2607 36.1899 13.6101C35.7041 13.9553 35.0905 14.1278 34.349 14.1278C33.7354 14.1278 33.1899 13.9936 32.7126 13.7251C32.2354 13.4524 31.8604 13.0433 31.5876 12.4979C31.3149 11.9482 31.1785 11.2557 31.1785 10.4205V4.18182H32.6871V10.3182C32.6871 11.0341 32.8873 11.6051 33.2879 12.0312C33.6927 12.4574 34.2084 12.6705 34.8348 12.6705C35.2098 12.6705 35.5912 12.5746 35.979 12.3828C36.371 12.1911 36.6991 11.897 36.9633 11.5007C37.2318 11.1044 37.366 10.5994 37.366 9.9858ZM41.6375 14V4.18182H43.0949V5.71591H43.2227C43.4273 5.19176 43.7575 4.7848 44.2135 4.49503C44.6695 4.20099 45.2171 4.05398 45.8563 4.05398C46.504 4.05398 47.0431 4.20099 47.4735 4.49503C47.9081 4.7848 48.2469 5.19176 48.4898 5.71591H48.5921C48.8435 5.20881 49.2206 4.80611 49.7235 4.50781C50.2263 4.20526 50.8293 4.05398 51.5324 4.05398C52.4102 4.05398 53.1283 4.32884 53.6865 4.87855C54.2448 5.42401 54.5239 6.27415 54.5239 7.42898V14H53.0154V7.42898C53.0154 6.70455 52.8172 6.18679 52.4209 5.87571C52.0246 5.56463 51.558 5.40909 51.021 5.40909C50.3307 5.40909 49.7959 5.6179 49.4166 6.03551C49.0374 6.44886 48.8477 6.97301 48.8477 7.60795V14H47.3137V7.27557C47.3137 6.71733 47.1325 6.26776 46.7703 5.92685C46.4081 5.58168 45.9415 5.40909 45.3705 5.40909C44.9784 5.40909 44.6119 5.51349 44.271 5.7223C43.9344 5.93111 43.6617 6.22088 43.4529 6.59162C43.2483 6.9581 43.146 7.3821 43.146 7.86364V14H41.6375ZM61.3985 14.2045C60.4525 14.2045 59.6365 13.9957 58.9504 13.5781C58.2686 13.1562 57.7423 12.5682 57.3715 11.8139C57.0051 11.0554 56.8218 10.1733 56.8218 9.16761C56.8218 8.16193 57.0051 7.27557 57.3715 6.50852C57.7423 5.73722 58.2579 5.13636 58.9184 4.70597C59.5832 4.27131 60.3588 4.05398 61.2451 4.05398C61.7565 4.05398 62.2615 4.1392 62.76 4.30966C63.2586 4.48011 63.7124 4.7571 64.1215 5.14062C64.5306 5.51989 64.8566 6.02273 65.0995 6.64915C65.3424 7.27557 65.4639 8.04687 65.4639 8.96307V9.60227H57.8957V8.2983H63.9298C63.9298 7.74432 63.819 7.25 63.5974 6.81534C63.3801 6.38068 63.069 6.03764 62.6642 5.78622C62.2636 5.5348 61.7906 5.40909 61.2451 5.40909C60.6443 5.40909 60.1244 5.55824 59.6855 5.85653C59.2508 6.15057 58.9163 6.53409 58.6819 7.0071C58.4475 7.48011 58.3303 7.98722 58.3303 8.52841V9.39773C58.3303 10.1392 58.4582 10.7678 58.7139 11.2834C58.9738 11.7947 59.3339 12.1847 59.7941 12.4531C60.2544 12.7173 60.7892 12.8494 61.3985 12.8494C61.7948 12.8494 62.1528 12.794 62.4724 12.6832C62.7963 12.5682 63.0754 12.3977 63.3097 12.1719C63.5441 11.9418 63.7252 11.6562 63.8531 11.3153L65.3105 11.7244C65.157 12.2188 64.8992 12.6534 64.537 13.0284C64.1748 13.3991 63.7274 13.6889 63.1947 13.8977C62.662 14.1023 62.0633 14.2045 61.3985 14.2045ZM75.7103 14.2301C75.0882 14.2301 74.5235 14.1129 74.0164 13.8786C73.5093 13.6399 73.1066 13.2969 72.8083 12.8494C72.51 12.3977 72.3609 11.8523 72.3609 11.2131C72.3609 10.6506 72.4717 10.1946 72.6933 9.84517C72.9149 9.49148 73.211 9.21449 73.5818 9.0142C73.9525 8.81392 74.3616 8.66477 74.809 8.56676C75.2607 8.46449 75.7146 8.38352 76.1705 8.32386C76.7671 8.24716 77.2508 8.18963 77.6215 8.15128C77.9965 8.10866 78.2693 8.03835 78.4397 7.94034C78.6144 7.84233 78.7018 7.67187 78.7018 7.42898V7.37784C78.7018 6.74716 78.5292 6.2571 78.184 5.90767C77.8431 5.55824 77.3254 5.38352 76.6308 5.38352C75.9106 5.38352 75.346 5.54119 74.9369 5.85653C74.5278 6.17187 74.2401 6.50852 74.074 6.86648L72.6421 6.35511C72.8978 5.75852 73.2387 5.29403 73.6649 4.96165C74.0953 4.625 74.564 4.39062 75.0711 4.25852C75.5825 4.12216 76.0853 4.05398 76.5796 4.05398C76.895 4.05398 77.2572 4.09233 77.6663 4.16903C78.0796 4.24148 78.4781 4.39276 78.8616 4.62287C79.2494 4.85298 79.5711 5.20028 79.8268 5.66477C80.0825 6.12926 80.2103 6.75142 80.2103 7.53125V14H78.7018V12.6705H78.6251C78.5228 12.8835 78.3524 13.1115 78.1137 13.3544C77.8751 13.5973 77.5576 13.804 77.1613 13.9744C76.765 14.1449 76.2813 14.2301 75.7103 14.2301ZM75.9404 12.875C76.537 12.875 77.0399 12.7578 77.449 12.5234C77.8623 12.2891 78.1734 11.9865 78.3822 11.6158C78.5953 11.245 78.7018 10.8551 78.7018 10.446V9.06534C78.6379 9.14205 78.4972 9.21236 78.2799 9.27628C78.0669 9.33594 77.8197 9.3892 77.5384 9.43608C77.2615 9.47869 76.9909 9.51705 76.7267 9.55114C76.4667 9.58097 76.2558 9.60653 76.0938 9.62784C75.7018 9.67898 75.3353 9.76207 74.9944 9.87713C74.6578 9.98793 74.385 10.1562 74.1762 10.3821C73.9717 10.6037 73.8694 10.9062 73.8694 11.2898C73.8694 11.8139 74.0633 12.2102 74.4511 12.4787C74.8431 12.7429 75.3396 12.875 75.9404 12.875ZM84.4722 8.09375V14H82.9637V4.18182H84.4211V5.71591H84.5489C84.779 5.21733 85.1285 4.81676 85.5972 4.5142C86.066 4.20739 86.6711 4.05398 87.4126 4.05398C88.0773 4.05398 88.659 4.19034 89.1576 4.46307C89.6562 4.73153 90.0439 5.14062 90.3209 5.69034C90.5979 6.2358 90.7364 6.92614 90.7364 7.76136V14H89.2279V7.86364C89.2279 7.09233 89.0276 6.49148 88.627 6.06108C88.2265 5.62642 87.6768 5.40909 86.9779 5.40909C86.4964 5.40909 86.066 5.51349 85.6867 5.7223C85.3117 5.93111 85.0155 6.2358 84.7982 6.63636C84.5809 7.03693 84.4722 7.52273 84.4722 8.09375ZM97.2004 14.2045C96.3822 14.2045 95.6599 13.9979 95.0335 13.5845C94.407 13.1669 93.917 12.5788 93.5633 11.8203C93.2096 11.0575 93.0328 10.1562 93.0328 9.11648C93.0328 8.08523 93.2096 7.19034 93.5633 6.43182C93.917 5.6733 94.4092 5.08736 95.0399 4.67401C95.6705 4.26065 96.3992 4.05398 97.2259 4.05398C97.8651 4.05398 98.3701 4.16051 98.7409 4.37358C99.1159 4.58239 99.4014 4.82102 99.5974 5.08949C99.7977 5.35369 99.9532 5.57102 100.064 5.74148H100.192V0.909091H101.7V14H100.243V12.4915H100.064C99.9532 12.6705 99.7955 12.8963 99.591 13.169C99.3865 13.4375 99.0945 13.6783 98.7153 13.8913C98.336 14.1001 97.8311 14.2045 97.2004 14.2045ZM97.4049 12.8494C98.01 12.8494 98.5214 12.6918 98.939 12.3764C99.3566 12.0568 99.6741 11.6158 99.8914 11.0533C100.109 10.4865 100.217 9.83239 100.217 9.09091C100.217 8.35795 100.111 7.71662 99.8978 7.1669C99.6847 6.61293 99.3694 6.18253 98.9518 5.87571C98.5342 5.56463 98.0186 5.40909 97.4049 5.40909C96.7657 5.40909 96.233 5.57315 95.8069 5.90128C95.385 6.22514 95.0676 6.66619 94.8545 7.22443C94.6457 7.77841 94.5413 8.40057 94.5413 9.09091C94.5413 9.78977 94.6478 10.4247 94.8609 10.9957C95.0782 11.5625 95.3978 12.0142 95.8197 12.3509C96.2458 12.6832 96.7742 12.8494 97.4049 12.8494ZM120.474 5H118.889C118.795 4.54403 118.631 4.14347 118.396 3.7983C118.166 3.45312 117.885 3.16335 117.553 2.92898C117.225 2.69034 116.86 2.51136 116.46 2.39205C116.059 2.27273 115.641 2.21307 115.207 2.21307C114.414 2.21307 113.696 2.41335 113.053 2.81392C112.413 3.21449 111.904 3.80469 111.525 4.58452C111.15 5.36435 110.962 6.32102 110.962 7.45455C110.962 8.58807 111.15 9.54474 111.525 10.3246C111.904 11.1044 112.413 11.6946 113.053 12.0952C113.696 12.4957 114.414 12.696 115.207 12.696C115.641 12.696 116.059 12.6364 116.46 12.517C116.86 12.3977 117.225 12.2209 117.553 11.9865C117.885 11.7479 118.166 11.456 118.396 11.1108C118.631 10.7614 118.795 10.3608 118.889 9.90909H120.474C120.354 10.5781 120.137 11.1768 119.822 11.7053C119.506 12.2337 119.114 12.6832 118.646 13.054C118.177 13.4205 117.651 13.6996 117.067 13.8913C116.487 14.0831 115.867 14.179 115.207 14.179C114.09 14.179 113.097 13.9062 112.228 13.3608C111.359 12.8153 110.675 12.0398 110.176 11.0341C109.678 10.0284 109.428 8.83523 109.428 7.45455C109.428 6.07386 109.678 4.88068 110.176 3.875C110.675 2.86932 111.359 2.09375 112.228 1.5483C113.097 1.00284 114.09 0.730113 115.207 0.730113C115.867 0.730113 116.487 0.825994 117.067 1.01776C117.651 1.20952 118.177 1.49077 118.646 1.86151C119.114 2.22798 119.506 2.67543 119.822 3.20384C120.137 3.72798 120.354 4.3267 120.474 5ZM126.82 14.2045C125.933 14.2045 125.155 13.9936 124.486 13.5717C123.822 13.1499 123.302 12.5597 122.927 11.8011C122.556 11.0426 122.371 10.1562 122.371 9.14205C122.371 8.11932 122.556 7.22656 122.927 6.46378C123.302 5.70099 123.822 5.10866 124.486 4.68679C125.155 4.26491 125.933 4.05398 126.82 4.05398C127.706 4.05398 128.481 4.26491 129.146 4.68679C129.815 5.10866 130.335 5.70099 130.706 6.46378C131.081 7.22656 131.268 8.11932 131.268 9.14205C131.268 10.1562 131.081 11.0426 130.706 11.8011C130.335 12.5597 129.815 13.1499 129.146 13.5717C128.481 13.9936 127.706 14.2045 126.82 14.2045ZM126.82 12.8494C127.493 12.8494 128.047 12.6768 128.481 12.3317C128.916 11.9865 129.238 11.5327 129.447 10.9702C129.655 10.4077 129.76 9.7983 129.76 9.14205C129.76 8.4858 129.655 7.87429 129.447 7.30753C129.238 6.74077 128.916 6.28267 128.481 5.93324C128.047 5.58381 127.493 5.40909 126.82 5.40909C126.146 5.40909 125.592 5.58381 125.158 5.93324C124.723 6.28267 124.401 6.74077 124.192 7.30753C123.984 7.87429 123.879 8.4858 123.879 9.14205C123.879 9.7983 123.984 10.4077 124.192 10.9702C124.401 11.5327 124.723 11.9865 125.158 12.3317C125.592 12.6768 126.146 12.8494 126.82 12.8494ZM141.248 4.18182L137.617 14H136.083L132.453 4.18182H134.089L136.799 12.0057H136.901L139.612 4.18182H141.248ZM147.004 14.2045C146.058 14.2045 145.242 13.9957 144.556 13.5781C143.874 13.1562 143.348 12.5682 142.977 11.8139C142.611 11.0554 142.427 10.1733 142.427 9.16761C142.427 8.16193 142.611 7.27557 142.977 6.50852C143.348 5.73722 143.863 5.13636 144.524 4.70597C145.189 4.27131 145.964 4.05398 146.851 4.05398C147.362 4.05398 147.867 4.1392 148.366 4.30966C148.864 4.48011 149.318 4.7571 149.727 5.14062C150.136 5.51989 150.462 6.02273 150.705 6.64915C150.948 7.27557 151.069 8.04687 151.069 8.96307V9.60227H143.501V8.2983H149.535C149.535 7.74432 149.424 7.25 149.203 6.81534C148.986 6.38068 148.674 6.03764 148.27 5.78622C147.869 5.5348 147.396 5.40909 146.851 5.40909C146.25 5.40909 145.73 5.55824 145.291 5.85653C144.856 6.15057 144.522 6.53409 144.287 7.0071C144.053 7.48011 143.936 7.98722 143.936 8.52841V9.39773C143.936 10.1392 144.064 10.7678 144.319 11.2834C144.579 11.7947 144.939 12.1847 145.4 12.4531C145.86 12.7173 146.395 12.8494 147.004 12.8494C147.4 12.8494 147.758 12.794 148.078 12.6832C148.402 12.5682 148.681 12.3977 148.915 12.1719C149.15 11.9418 149.331 11.6562 149.459 11.3153L150.916 11.7244C150.763 12.2188 150.505 12.6534 150.142 13.0284C149.78 13.3991 149.333 13.6889 148.8 13.8977C148.267 14.1023 147.669 14.2045 147.004 14.2045ZM153.364 14V4.18182H154.821V5.66477H154.924C155.103 5.17898 155.427 4.7848 155.895 4.48224C156.364 4.17969 156.893 4.02841 157.481 4.02841C157.591 4.02841 157.73 4.03054 157.896 4.0348C158.062 4.03906 158.188 4.04545 158.273 4.05398V5.58807C158.222 5.57528 158.105 5.55611 157.922 5.53054C157.743 5.50071 157.553 5.4858 157.353 5.4858C156.875 5.4858 156.449 5.58594 156.074 5.78622C155.704 5.98224 155.41 6.25497 155.192 6.6044C154.979 6.94957 154.873 7.34375 154.873 7.78693V14H153.364ZM165.328 14V0.909091H166.914V12.5938H172.999V14H165.328ZM179.365 14.2045C178.419 14.2045 177.603 13.9957 176.917 13.5781C176.235 13.1562 175.709 12.5682 175.338 11.8139C174.972 11.0554 174.789 10.1733 174.789 9.16761C174.789 8.16193 174.972 7.27557 175.338 6.50852C175.709 5.73722 176.225 5.13636 176.885 4.70597C177.55 4.27131 178.326 4.05398 179.212 4.05398C179.723 4.05398 180.228 4.1392 180.727 4.30966C181.225 4.48011 181.679 4.7571 182.088 5.14062C182.497 5.51989 182.823 6.02273 183.066 6.64915C183.309 7.27557 183.431 8.04687 183.431 8.96307V9.60227H175.862V8.2983H181.897C181.897 7.74432 181.786 7.25 181.564 6.81534C181.347 6.38068 181.036 6.03764 180.631 5.78622C180.23 5.5348 179.757 5.40909 179.212 5.40909C178.611 5.40909 178.091 5.55824 177.652 5.85653C177.218 6.15057 176.883 6.53409 176.649 7.0071C176.414 7.48011 176.297 7.98722 176.297 8.52841V9.39773C176.297 10.1392 176.425 10.7678 176.681 11.2834C176.941 11.7947 177.301 12.1847 177.761 12.4531C178.221 12.7173 178.756 12.8494 179.365 12.8494C179.762 12.8494 180.12 12.794 180.439 12.6832C180.763 12.5682 181.042 12.3977 181.277 12.1719C181.511 11.9418 181.692 11.6562 181.82 11.3153L183.277 11.7244C183.124 12.2188 182.866 12.6534 182.504 13.0284C182.142 13.3991 181.694 13.6889 181.162 13.8977C180.629 14.1023 180.03 14.2045 179.365 14.2045ZM189.995 4.18182V5.46023H184.907V4.18182H189.995ZM186.39 1.82955H187.899V11.1875C187.899 11.6136 187.961 11.9332 188.084 12.1463C188.212 12.3551 188.374 12.4957 188.57 12.5682C188.77 12.6364 188.981 12.6705 189.203 12.6705C189.369 12.6705 189.505 12.6619 189.612 12.6449C189.718 12.6236 189.804 12.6065 189.867 12.5938L190.174 13.9489C190.072 13.9872 189.929 14.0256 189.746 14.0639C189.563 14.1065 189.331 14.1278 189.049 14.1278C188.623 14.1278 188.206 14.0362 187.796 13.853C187.392 13.6697 187.055 13.3906 186.787 13.0156C186.522 12.6406 186.39 12.1676 186.39 11.5966V1.82955ZM196.534 4.18182V5.46023H191.446V4.18182H196.534ZM192.929 1.82955H194.438V11.1875C194.438 11.6136 194.5 11.9332 194.623 12.1463C194.751 12.3551 194.913 12.4957 195.109 12.5682C195.309 12.6364 195.52 12.6705 195.742 12.6705C195.908 12.6705 196.044 12.6619 196.151 12.6449C196.257 12.6236 196.343 12.6065 196.407 12.5938L196.713 13.9489C196.611 13.9872 196.468 14.0256 196.285 14.0639C196.102 14.1065 195.87 14.1278 195.588 14.1278C195.162 14.1278 194.745 14.0362 194.336 13.853C193.931 13.6697 193.594 13.3906 193.326 13.0156C193.061 12.6406 192.929 12.1676 192.929 11.5966V1.82955ZM202.815 14.2045C201.869 14.2045 201.052 13.9957 200.366 13.5781C199.685 13.1562 199.158 12.5682 198.788 11.8139C198.421 11.0554 198.238 10.1733 198.238 9.16761C198.238 8.16193 198.421 7.27557 198.788 6.50852C199.158 5.73722 199.674 5.13636 200.334 4.70597C200.999 4.27131 201.775 4.05398 202.661 4.05398C203.173 4.05398 203.677 4.1392 204.176 4.30966C204.675 4.48011 205.128 4.7571 205.538 5.14062C205.947 5.51989 206.273 6.02273 206.516 6.64915C206.758 7.27557 206.88 8.04687 206.88 8.96307V9.60227H199.312V8.2983H205.346C205.346 7.74432 205.235 7.25 205.013 6.81534C204.796 6.38068 204.485 6.03764 204.08 5.78622C203.68 5.5348 203.207 5.40909 202.661 5.40909C202.06 5.40909 201.54 5.55824 201.101 5.85653C200.667 6.15057 200.332 6.53409 200.098 7.0071C199.864 7.48011 199.746 7.98722 199.746 8.52841V9.39773C199.746 10.1392 199.874 10.7678 200.13 11.2834C200.39 11.7947 200.75 12.1847 201.21 12.4531C201.67 12.7173 202.205 12.8494 202.815 12.8494C203.211 12.8494 203.569 12.794 203.888 12.6832C204.212 12.5682 204.491 12.3977 204.726 12.1719C204.96 11.9418 205.141 11.6562 205.269 11.3153L206.726 11.7244C206.573 12.2188 206.315 12.6534 205.953 13.0284C205.591 13.3991 205.143 13.6889 204.611 13.8977C204.078 14.1023 203.479 14.2045 202.815 14.2045ZM209.175 14V4.18182H210.632V5.66477H210.734C210.913 5.17898 211.237 4.7848 211.706 4.48224C212.175 4.17969 212.703 4.02841 213.291 4.02841C213.402 4.02841 213.54 4.03054 213.707 4.0348C213.873 4.03906 213.999 4.04545 214.084 4.05398V5.58807C214.033 5.57528 213.915 5.55611 213.732 5.53054C213.553 5.50071 213.364 5.4858 213.163 5.4858C212.686 5.4858 212.26 5.58594 211.885 5.78622C211.514 5.98224 211.22 6.25497 211.003 6.6044C210.79 6.94957 210.683 7.34375 210.683 7.78693V14H209.175Z" fill="white"/>
</svg>
